<svg height="100" viewBox="0 0 117 100" width="117" xmlns="http://www.w3.org/2000/svg"><path d="m50.4746432 15.5315454c-.030545.0183227-.0610901.0325737-.0936714.0468247-.7941708.4030995-1.5150335.8733822-2.1157524 1.4067765-.3950491 2.9336684 1.3032546 5.2260423 2.9934129 7.506201.9570776 1.2907327 1.9100825 2.5773937 2.5535645 4.0126722 1.5496511-.1201155 3.1318837-.2951991 4.8037149-.6535098 1.366381-.2931633 2.7958884-.7084779 4.3190672-1.3171988-.4642844-.9039201-.7086447-2.0053182-.8186068-3.1291107-.1425434-1.455637-.0692354-2.9438478.0223997-4.0635686.0346177-.4478883.4276304-.7817687.8756242-.7471591.4479938.0346095.7819528.4275298.7473351.8754181-.0183271.211729-.0346177.437709-.0488721.6718325.9000602.3908843 1.9243369.7715894 2.9954492.8061989.953005.0305379 1.9874633-.211729 3.0809754-.9731391l-.5253745-.8408086c-1.7308851.2890916-3.3395899-1.017928-5.1213833-2.4654216-1.706449-1.3864179-3.6022772-2.925525-5.6589758-2.9479195-.0101817 0-.0223997 0-.0325814 0-1.8123384-.0101792-3.9769629.3196294-5.9786805.9894261-.6964266.2320875-1.3704536.5069281-1.9996812.8204499zm58.9254348 45.7864013c0-.2809481.228069-.508964.509084-.508964.281014 0 .509084.2280159.509084.508964v9.3262563c0 .2809481-.22807.508964-.509084.508964-.014255 0-.030545 0-.0448-.0020359l-8.220685.0101793c-.281015 0-.507048-.2280158-.507048-.5069281 0-.2809481.22807-.5069282.507048-.5069282l7.754365-.0101792v-8.8213641zm-104.22574999-.5741114c0 .2809481-.22806955.508964-.50908383.508964-.28101427 0-.50908382-.2280159-.50908382-.508964v-9.3262563c0-.2809481.22806955-.508964.50908382-.508964.01425435 0 .03054503 0 .04479938.0020359l8.22068564-.0101793c.2810143 0 .5070475.2280158.5070475.5069281 0 .2809481-.2280696.5069282-.5070475.5069282l-7.75436486.0101792v8.8213641zm83.37571269 12.7485302c0-.2809481.2280696-.508964.5090839-.508964.2810142 0 .5090838.2280159.5090838.508964v9.3262564c0 .2809481-.2280696.5089639-.5090838.5089639-.0142544 0-.0305451 0-.0447994-.0020358l-8.2206856.0101793c-.2810143 0-.5070475-.2280159-.5070475-.5069282 0-.2809481.2280695-.5069281.5070475-.5069281l7.7543648-.0101793v-8.821364zm-87.72736124-26.6595342h25.63949784v-22.0137109c0-.4499241.364504-.8143424.8145341-.8143424h12.0327053c.5253745-.6229719 1.0833304-1.3314498 1.6616496-2.0663938 2.380476-3.0273179 5.0969473-6.4801296 8.7766052-7.8563683.6821723-.3399879 1.4050714-.6351871 2.1483337-.8876332l-.4418847-1.5472506c-.6903177-1.5431788-.8654425-2.7646924-.6903177-3.70322201.1608705-.85505952.5946099-1.47803145 1.2014378-1.89945364.5661013-.39292021 1.2706733-.59446995 2.0261537-.63518707 1.2991819-.07125496 2.7897793.34813137 3.9158728 1.06475268 1.3500903.85913123 1.2666005 2.26183601 1.1749654 3.77854874-.0386903.6392588-.0773807 1.3070195.0203634 1.8872385 2.3519673.2605896 4.2966675 1.838378 6.0621702 3.2736564 1.5150335 1.2316929 2.8732691 2.3351269 3.9464178 2.0969317.0264724-.0264661.0570174-.0508964.0895988-.0732908 1.4193257-1.032179 2.6105818-1.4047406 3.3619895-1.3253423.4744662.0488606.8369339.2524462 1.0711124.5842907.2321422.3277728.3013776.7369799.1893792 1.201155-.1710522.7023704-.8674788 1.6470075-2.2114601 2.6058957-.0529448.1201155-.1343982.2280159-.2423239.311486-1.6494316 1.3864179-3.2418458 1.8119118-4.7120799 1.7630513-1.1036938-.0366454-2.1014981-.3359163-2.9954493-.6881193.0040727.4560317.0244361.918171.0692354 1.370131.0244361.254482.0570174.5069282.0977441.7512309h3.46177c.0610901 0 .1221802.0061076.1791976.0203586l6.5325636-3.9190228c.1201438-.071255.2586146-.114008.4072671-.114008l1.8041931-.0264661v-19.1574049c0-.44992418.364504-.8143424.8145341-.8143424h37.1570104c.45003 0 .814534.36441822.814534.8143424v73.9748634c0 .4499242-.364504.8143424-.814534.8143424h-20.8337466v11.0302678c0 .4499242-.364504.8143424-.8145341.8143424-.0244361 0-.0468358-.0020359-.0712718-.0040717l-44.1375677.0529322v9.6886387c0 .4499242-.364504.8143424-.8145341.8143424h-46.69927758c-.4500301 0-.81453412-.3644182-.81453412-.8143424v-49.5323763c0-.4499242.36450402-.8143424.81453412-.8143424zm40.59027164-22.8280533h7.4855686c-1.2482736-1.7895174-2.2868046-3.67472-2.3234586-5.9833807-1.5964869 1.4536011-3.0117399 3.2553337-4.3231399 4.9206639-.2830506.3603465-.5620285.7145855-.8389701 1.0627168zm8.6707157 1.6286848h-21.9903849v21.1993685h19.4307114c.4500301 0 .8145342.3644182.8145342.8143424v38.2231963l43.392269-.0529323v-60.1839749h-6.2943125c-.1160711 0-.2239968-.0244302-.3237773-.0671832l-7.1251372 1.4434219c-.0162907.0040717-.0346177.0101793-.0529447.014251l-.3889401.0834701c-1.415253.3033425-2.1625881.4641751-3.0280306 1.6185055-.1038531.1364023-.346177.466211-.5946099.8000914-1.8734284 2.5224256-4.1398696 5.5762096-6.4348195 6.8526913.018327.0366454.0346177.0773625.048872.1180796.4907568 1.4902466.7941708 3.1189314.9489323 4.7476162.1771611 1.8505931.1669795 3.6910069.0264723 5.3176558-.2402875 2.7667283-5.7750469 8.511914-9.334561 12.2069926-.6475546.6718325-1.2279102 1.2744458-1.6860856 1.7630513l2.0118992 2.1091468c.0346177.0366454.0631264.0732908.0895988.1140079.321741.4417808.4520664.8570954.4398484 1.229657-.012218.3908844-.1690158.7105138-.4235577.9568524-.2138152.2076573-.4927932.3501672-.8023161.4275297-.5253745.1302948-1.1912562.0732908-1.7716117-.1893346-.0346177-.0162868-.0692354-.0346095-.1018168-.0549681l-4.6428445-2.8827721c-1.3012183-.8082348-1.663686-1.6999397-1.4071077-2.6628996.2056699-.7715894.8634062-1.4882108 1.7471757-2.1966886.2036335-.3013067.3909764-.608721.5640649-.9263145.0142543-.0305379.030545-.0590398.048872-.0875418.4907568-.9100277.8756242-1.8729875 1.2604916-2.8359474 1.0018769-2.5041029 2.0037539-5.0061699 4.8057513-6.9748427l-4.5939725-8.9516588-.0407267-.0122151c-.1323618-.0366454-.2484329-.1038287-.340068-.1934063-2.411021-.2931633-4.6754258-.7553026-6.1863866-2.078609-.3380317-.2951991-.370613-.8082348-.0773808-1.1461869l.0162907-.0183227c.5966463-.6412947 1.2991819-1.1726531 2.0017176-1.7060474.9998407-.7573384 1.997645-1.5167127 2.5311648-2.5631426-.5111202-1.4922825-1.5109608-2.8725929-2.5311648-4.2529032zm40.7898325-1.6286848h1.6718313c.4500301 0 .8145341.3644183.8145341.8143424v49.1496354h20.0192123v-72.34617857h-35.527942v18.31863227l7.839891-.1180797-.0651628-4.0391383c-.2097425-.7939838.1140348-1.6286848.6516273-2.1539356.2199242-.2158008.4846478-.3847768.7676984-.4865696.3197047-.1140079.6597727-.1445458.9978043-.0590398.637373.1608326 1.2136559.6962627 1.4967065 1.7895174l1.4376527 4.3954131c.4418848 1.2561231.7778801 2.3269834.6597726 3.2553337-.0773807.5985417-.3095229 1.0952905-.759553 1.4821032zm-26.5721394 1.6286848c.0366541.0773626.0733081.1547251.1140348.2280159l.3787584-.2280159zm2.5657825 15.763633c-.1425435-1.4780315-.4154124-2.9560629-.8532245-4.3139789-1.5618692.6494381-3.158356 1.0240356-4.7507703 1.1665455-1.5170698.1364024-3.0239579.0610757-4.4901193-.183227l3.9219818 7.6426034c.1058894-.057004.2138152-.1119721.3237773-.1669402.4011581-.1995139.8878422-.0386813 1.0874031.3623824.1995608.4010636.0386903.8876332-.3624677 1.0871471-3.5961682 1.7976608-4.6652442 4.4707397-5.7363566 7.1438186-.3197046.7980556-.6394093 1.5961111-1.0222403 2.3839874l2.5108014 1.6470075.5029748-.523215c3.4027163-3.5322101 8.6931155-9.0208779 8.884531-11.2216382.1343981-1.5533581.1466161-3.294015-.018327-5.0244926zm-11.0959911 18.6036521c.1751249-.1954422.3706131-.4071712.5864646-.6392588l-2.1605518-1.4169558c-.0875624.1384382-.1771611.2748406-.2708326.4112429-.0509083.085506-.1160711.1649044-.1995608.2300517-.6760633.5313585-1.1668201 1.0138563-1.2727096 1.4108483-.0631264.2320875.1262528.5109998.6943904.8632029l4.5960087 2.8542701c.2077062.085506.4255941.1140079.600719.0895777-.0142544-.0223945-.0305451-.0447889-.0509084-.0732909l-2.5067288-2.62829c-.2891596-.3033426-.3013776-.7817687-.0162907-1.0993623zm-2.3092042-47.2664687c1.3561993-.3399879 2.732762-.5435735 4.0034352-.6107568-.0773807-.6596173-.0386904-1.3253422 0-1.9686727.0610901-1.02403557.1181074-1.9707086-.4255941-2.31476827-.8572971-.5456094-1.9833906-.86320294-2.9628678-.81027068-.4602118.02443027-.8735879.13640235-1.1790382.35016723-.2667599.1852629-.4581754.46824688-.5335198.86320294-.1201438.63925878.036654 1.54928641.6007189 2.79523028.0162907.0366454.030545.0732908.0407267.1119721l.4541028 1.5879677zm17.24776 5.6393211.3298863.5272868c.59461-.4621394.9570776-.863203 1.1220208-1.1706172-.3421043.0508964-.8308248.2504102-1.4519071.6433304zm14.6188512 3.0761785.4703934 2.3208758 3.0280306-.6127927c.8206432-.1669402 1.1484931-.4499241 1.1994015-.8387726.0753444-.5781831-.2138152-1.4678522-.5885009-2.5326049l-.006109-.0162868-1.4498707-4.4340944c-.006109-.0162868-.0101817-.0346095-.0142544-.0508964h-.0020363c-.1079258-.4214222-.2199242-.6005775-.315632-.6250078-.012218-.0040717-.0325813 0-.054981.0081434-.0590538.0203586-.1221801.0651474-.1832702.1241873-.1690158.1649043-.2749053.4030994-.2097425.5944699.0325813.0956852.0468357.1934063.0447993.2890916l.0794171 4.9308432c.006109.4478883-.3502497.8163782-.7982434.8245217zm-1.1199844 2.642541-.5314836-2.6181108-9.018929.1343665-9.4119418 5.6454287c-.5070475 2.0439994-1.3439813 3.8823774-2.4374934 5.5619586-.9122782 1.4006689-1.9976449 2.6832582-3.2174097 3.8762698.5090838.0061076 1.0202039-.014251 1.5333604-.0590398 1.8428835-.1649044 3.6959486-.6799759 5.4879237-1.6286848 2.0078266-1.0647527 4.1989234-4.0147081 6.0031165-6.4455201.1608705-.2158007.3156319-.4254939.6027552-.806199 1.2319829-1.6449716 2.1870241-1.8485572 3.9891809-2.2353699.0407267-.0081434.0855261-.0183227.382831-.0834701.024436-.0061075.0488721-.0101792.0733081-.0122151l6.5447817-1.3253423zm-25.2525942 5.3481937c-1.6290682.3501673-3.1624287.5313584-4.6550625.6555457-.6129369 1.653115-1.9243368 2.6466128-3.2337004 3.6421463-.3767221.2870557-.7554804.5720756-1.1077664.8733823 1.5659418.8693105 3.9260544 1.115649 6.2882034 1.3599518.5090838.0529322 1.0181676.1058645 1.5577965.168976 1.4111804-1.2907327 2.6472359-2.6812223 3.6430039-4.212186.765662-1.1746889 1.3928533-2.432848 1.8510287-3.7948356-1.5313241.5965058-2.9689768 1.0097846-4.3435032 1.3049837zm-12.2465205 19.0189667h-45.07020928v47.9036916h45.07020928z" fill="#fff" stroke="#fff" stroke-width=".5" transform="translate(1 1)"/></svg>