<?xml version="1.0" encoding="UTF-8"?>
<svg width="107px" height="114px" viewBox="0 0 107 114" version="1.1" xmlns="http://www.w3.org/2000/svg" xmlns:xlink="http://www.w3.org/1999/xlink">
    <!-- Generator: Sketch 54.1 (76490) - https://sketchapp.com -->
    <title>noun_follower_2471449</title>
    <desc>Created with Sketch.</desc>
    <g id="FINAL-DESIGNS" stroke="none" stroke-width="1" fill="none" fill-rule="evenodd">
        <g id="SRM-LandingPage-v3" transform="translate(-1171.000000, -2081.000000)" fill="#FFFFFF" fill-rule="nonzero" stroke="#FFFFFF" stroke-width="0.8">
            <g id="noun_follower_2471449" transform="translate(1172.000000, 2082.000000)">
                <path d="M34.4026978,74.9888688 C34.8049237,75.0270195 35.1404295,74.9011223 35.3672773,74.689386 C35.5007171,74.5653964 35.5998439,74.4108861 35.6532198,74.2449307 C35.7046895,74.0866054 35.7142209,73.916835 35.6741889,73.7527871 C35.6093753,73.4876399 35.4034967,73.2205852 35.02224,73.008849 C33.6077776,72.3602876 32.1151577,71.6926508 30.5939435,71.1051305 C29.0803544,70.5195177 27.5381711,70.0159289 26.0226757,69.6954632 C25.6223562,69.6115318 25.3021005,69.5485831 25.016158,69.5428605 C24.7435595,69.5371379 24.4652421,69.5771962 24.1125797,69.6954632 C23.8094806,69.7965625 23.5578512,69.9415351 23.3576914,70.1189357 C23.0488735,70.3898054 22.8563388,70.7426991 22.7724624,71.1222983 C22.6847733,71.5190653 22.7133676,71.9463528 22.8468074,72.3450273 C22.9459342,72.640695 23.1022494,72.9191949 23.3138469,73.1595441 C23.7408544,73.6459652 24.1373613,73.7318042 24.7549972,73.8672391 C24.8045606,73.8786843 24.7797789,73.8729617 24.7549972,73.8672391 L24.7549972,73.8691466 L24.9742198,73.9187425 C26.468746,74.2525609 27.9728037,74.513893 29.5321436,74.6951086 C31.0895772,74.8763243 32.6775113,74.9774236 34.3359779,74.9850537 C34.3588533,74.9850537 34.3798224,74.9869613 34.4007916,74.9888688 L34.4026978,74.9888688 Z M49.3403351,103.878464 C49.3117409,103.617132 49.500463,103.382506 49.7616238,103.353893 C50.0227846,103.32528 50.2572575,103.514125 50.2858517,103.775457 L50.8501117,108.862849 C50.8787059,109.124181 50.6899838,109.358808 50.428823,109.387421 C50.1676622,109.416034 49.9331893,109.227188 49.9045951,108.965856 L49.3403351,103.878464 Z M10.7514388,5.0548742 C11.1098201,4.44446347 11.5635155,3.90081641 12.0953686,3.44873096 C13.1171366,2.57889567 14.4172219,2.05241641 15.8412157,2.05241641 C17.4043681,2.05241641 18.8207367,2.68762508 19.844411,3.71197059 C20.8699915,4.73822364 21.5028776,6.15361352 21.5028776,7.71969856 C21.5028776,8.43502364 21.3904069,9.16370145 21.1387774,9.83706079 C20.9043046,10.4627318 20.5497358,11.0349918 20.0521959,11.5023376 L11.2699479,19.7314373 C10.9763802,20.0061221 10.5226848,20.002307 10.2329297,19.7314373 L1.45068172,11.5023376 C0.953141737,11.0349918 0.596666727,10.4627318 0.364100143,9.83706079 C0.112470725,9.16370145 -9.09494702e-13,8.43502364 -9.09494702e-13,7.71969856 C-9.09494702e-13,6.15552106 0.634792397,4.73822364 1.65846662,3.71197059 C2.68404713,2.68571755 4.09850947,2.05241641 5.6635682,2.05241641 C7.08756195,2.05241641 8.38764728,2.57889567 9.40941522,3.44873096 C9.93936203,3.90081641 10.3949638,4.44446347 10.7533451,5.0548742 L10.7514388,5.0548742 Z M13.0771046,4.61232642 C12.2898096,5.2818707 11.7217371,6.22419226 11.4987019,7.28859598 C11.4434197,7.58044861 11.216572,7.82652044 10.9058478,7.89137658 C10.4940905,7.97721559 10.0918647,7.71206842 10.006082,7.30194871 C9.78304679,6.2318224 9.21497431,5.28568576 8.42386667,4.61423396 C7.66897841,3.97139515 6.71011783,3.58225831 5.66166192,3.58225831 C4.51979812,3.58225831 3.48468619,4.04578896 2.73551678,4.79544964 C1.98634738,5.54511032 1.5231205,6.5789935 1.5231205,7.72351363 C1.5231205,8.27669835 1.6031844,8.82416048 1.78618761,9.31058153 C1.94250286,9.72833137 2.17125688,10.1022079 2.48579365,10.3978756 L10.7495325,18.1405543 L19.0132714,10.3978756 C19.3278081,10.1022079 19.5565622,9.72833137 19.7128774,9.31058153 C19.8939743,8.82416048 19.9759445,8.27669835 19.9759445,7.72351363 C19.9759445,6.58090104 19.5127176,5.54511032 18.7635482,4.79544964 C18.0143788,4.04578896 16.9811732,3.58225831 15.8374031,3.58225831 C14.7889472,3.58225831 13.8300866,3.97139515 13.0751983,4.61423396 L13.0771046,4.61232642 Z M24.6310888,26.7263627 C24.8865307,26.344856 25.1896298,26.0015 25.5346671,25.7077398 C26.3429313,25.0191202 27.3742307,24.6032779 28.5008442,24.6032779 C29.7399285,24.6032779 30.8627294,25.1068668 31.6767125,25.9194761 C32.4887892,26.7320853 32.9920481,27.8556226 32.9920481,29.0974269 C32.9920481,29.6601493 32.9024528,30.2362244 32.7041993,30.7722414 C32.5173835,31.2720152 32.231441,31.7317307 31.8311214,32.1075149 L25.1495979,38.3680399 C24.8560302,38.6427248 24.4023347,38.6389097 24.1125797,38.3680399 L17.4310561,32.1075149 C17.0307366,31.7317307 16.744794,31.2720152 16.5579783,30.7722414 C16.3578185,30.238132 16.2701294,29.6620569 16.2701294,29.0974269 C16.2701294,27.8575301 16.7733883,26.7339929 17.585465,25.9194761 C18.3975418,25.1068668 19.5203428,24.6032779 20.7613333,24.6032779 C21.8898531,24.6032779 22.9192462,25.0210278 23.7275104,25.7077398 C24.0725477,26.0015 24.3775531,26.344856 24.6310888,26.7263627 Z M26.5183094,26.8713353 C25.9502369,27.3539413 25.540386,28.0330232 25.3783519,28.8036668 C25.3230697,29.0955194 25.0962219,29.3415912 24.7854977,29.4064474 C24.3737405,29.4922864 23.9715147,29.2271392 23.8857319,28.8170195 C23.7256041,28.0425609 23.3138469,27.3596639 22.7438681,26.8732428 C22.2005773,26.4116197 21.512409,26.1312123 20.759427,26.1312123 C19.9397251,26.1312123 19.1981809,26.4631231 18.6625152,27.0010476 C18.1268495,27.5370645 17.7932499,28.279095 17.7932499,29.0993345 C17.7932499,29.4999165 17.8504384,29.8966835 17.9800657,30.2438546 C18.0887239,30.5357072 18.2488517,30.7970393 18.466168,31.0011454 L24.6291825,36.7752494 L30.7921969,31.0011454 C31.0095133,30.7970393 31.1696411,30.5357072 31.2782992,30.2438546 C31.4079265,29.8966835 31.465115,29.501824 31.465115,29.0993345 C31.465115,28.279095 31.1334217,27.5370645 30.5958497,27.0010476 C30.0601841,26.4650306 29.3186398,26.1312123 28.4989379,26.1312123 C27.745956,26.1312123 27.0577876,26.4116197 26.5144968,26.8732428 L26.5183094,26.8713353 Z M43.3717616,8.96913303 C43.7530183,8.30149629 44.2429331,7.70825336 44.8186307,7.21801724 C45.8899621,6.30621621 47.254861,5.75303148 48.7493873,5.75303148 C50.3906973,5.75303148 51.8756922,6.41876068 52.950836,7.4946096 C54.0259799,8.57045852 54.6912729,10.0564271 54.6912729,11.6988135 C54.6912729,12.4503817 54.5730833,13.2153027 54.3100162,13.9210901 C54.0660119,14.5753741 53.6942866,15.1762472 53.1719649,15.6645757 L43.8902707,24.3610212 C43.596703,24.635706 43.1430076,24.6318909 42.8532525,24.3610212 L33.5715583,15.6645757 C33.0492366,15.1762472 32.6794176,14.5753741 32.433507,13.9210901 C32.1685336,13.2153027 32.0522503,12.4484742 32.0522503,11.6988135 C32.0522503,10.0564271 32.7175433,8.57045852 33.7926871,7.4946096 C34.867831,6.41876068 36.3528258,5.75303148 37.9941359,5.75303148 C39.4886622,5.75303148 40.8535611,6.30621621 41.9248924,7.21801724 C42.50059,7.70825336 42.9905049,8.30149629 43.3717616,8.96913303 Z M45.802273,8.3816127 C44.9635083,9.09503024 44.3573101,10.1003004 44.1190247,11.2352829 C44.0637425,11.5271355 43.8368948,11.7732073 43.5261705,11.8380635 C43.1144133,11.9239025 42.7121875,11.6587553 42.6264047,11.2486356 C42.3900256,10.1079305 41.7819212,9.09884531 40.9412502,8.38352023 C40.1348922,7.69871569 39.111218,7.28287338 37.9941359,7.28287338 C36.7741145,7.28287338 35.6703764,7.77692456 34.8716436,8.57808865 C34.0729108,9.3773452 33.5772771,10.4818071 33.5772771,11.7026286 C33.5772771,12.2920565 33.6630599,12.8757617 33.8575008,13.3946108 C34.0252537,13.8409737 34.269258,14.2434633 34.6085765,14.5601138 L43.3717616,22.7720457 L52.1349467,14.5601138 C52.4723589,14.2434633 52.7182695,13.8409737 52.8860224,13.3946108 C53.0804633,12.8757617 53.1662461,12.2901489 53.1662461,11.7026286 C53.1662461,10.4818071 52.6725187,9.3773452 51.8718796,8.57808865 C51.0731468,7.7788321 49.9694087,7.28287338 48.7493873,7.28287338 C47.6303989,7.28287338 46.6067246,7.69871569 45.802273,8.38352023 L45.802273,8.3816127 Z M67.482435,12.1966798 C66.6360451,12.7708474 66.2643198,13.4327615 66.2166627,14.0450798 C66.1899748,14.3865283 66.258601,14.7165316 66.3958534,15.0121993 C66.5369184,15.3135896 66.7523284,15.5806443 67.0115829,15.7847504 C67.455747,16.1319215 68.0314446,16.2921543 68.6014234,16.1242913 C69.0036492,16.0060243 69.4268441,16.2368358 69.5450337,16.6393254 C69.5660028,16.7099041 69.5755342,16.7823904 69.5755342,16.8548767 L69.5774405,16.8548767 C69.5774405,17.2039553 69.7642563,17.4977155 70.0597302,17.7208969 C70.2675151,17.8773147 70.5286759,18.0013043 70.8241499,18.0890509 C71.1291552,18.1806125 71.4665674,18.2283008 71.8116047,18.2283008 C72.7151831,18.2283008 73.6511683,17.9002051 74.2078031,17.160082 C74.4594325,16.8243561 74.9360033,16.7556849 75.2715092,17.0074794 C75.4697627,17.156267 75.5746083,17.385171 75.5746083,17.6159826 L75.5784209,17.6159826 C75.5784209,18.3351227 76.0225849,18.7967458 76.5925637,19.0008519 C76.836568,19.0885984 77.1091665,19.1324717 77.3893902,19.1324717 C77.6696138,19.1324717 77.9422124,19.0885984 78.1843104,19.0008519 C78.7542891,18.7967458 79.1984532,18.3351227 79.1984532,17.6159826 C79.1984532,17.1944176 79.5396779,16.8529691 79.9609666,16.8529691 C80.1744703,16.8529691 80.3689112,16.9407157 80.5080699,17.0837807 C81.2572393,17.7170818 82.1970371,17.7762154 83.0053013,17.5091607 C83.3884643,17.3832635 83.7354079,17.1906026 84.0194441,16.9540684 C84.2901363,16.7289795 84.5017338,16.4676474 84.623736,16.1929625 C84.7895826,15.8209935 84.7800512,15.4089663 84.4979212,15.0312746 C84.2462918,14.6955487 84.314918,14.2186653 84.6504239,13.9668709 C84.724769,13.9115524 84.8067392,13.8695867 84.8925219,13.8447888 L84.8925219,13.8447888 C85.4472504,13.6807409 85.7598809,13.3106794 85.8895082,12.8852994 C85.9733847,12.6106146 85.9886349,12.3092243 85.9505093,12.0154641 C85.9123836,11.725519 85.8189757,11.4489266 85.6836296,11.2238377 C85.525408,10.9586905 85.3195294,10.7793824 85.107932,10.7793824 C84.6866433,10.7793824 84.3454186,10.4379339 84.3454186,10.0163689 C84.3454186,9.65393757 84.5989543,9.35063973 84.9382727,9.27243086 C85.4663132,9.10266037 85.7655998,8.740229 85.8914145,8.32629422 C85.9752909,8.05160939 85.9905412,7.75021909 85.9524155,7.45645893 C85.9142899,7.16651383 85.820882,6.88992147 85.6855358,6.66483251 C85.5273143,6.39968535 85.3214357,6.2203772 85.1098382,6.2203772 C84.6885496,6.2203772 84.3473248,5.87892869 84.3473248,5.45736378 C84.3473248,5.26661043 84.4178573,5.09111734 84.5341406,4.95758999 C84.8143643,4.55128535 84.7838638,4.10683004 84.5646412,3.73104593 C84.4369202,3.51358711 84.2462918,3.30948102 84.0099127,3.13971053 C83.7659084,2.96230991 83.4799659,2.82305996 83.1711479,2.74294356 C82.3457272,2.52548473 81.3487409,2.72386822 80.5481019,3.67000486 C80.2774096,3.99047049 79.7970262,4.03052869 79.4748643,3.75965893 C79.3547684,3.65665212 79.2727982,3.52503231 79.2327663,3.38387482 C79.002106,2.56745047 78.3406256,2.04097121 77.5857374,1.80443705 C77.1835116,1.67853984 76.7584103,1.63466657 76.3599971,1.67281724 C75.9787404,1.70906038 75.626078,1.81778979 75.3458543,2.00091301 C74.974129,2.24126223 74.7263122,2.63421414 74.7263122,3.17976874 C74.7263122,3.60133365 74.3850874,3.94278215 73.9637988,3.94278215 C73.6931065,3.94278215 73.4548211,3.80162467 73.319475,3.58988845 C72.781903,2.90317637 72.0517964,2.58652581 71.4112852,2.56554294 C71.1558432,2.5579128 70.9213703,2.59797101 70.7269294,2.67999495 C70.5744268,2.74485109 70.4543309,2.8364127 70.3818921,2.95086471 C70.2808591,3.11109753 70.2656088,3.35144675 70.3857047,3.67000486 C70.5343948,4.06295676 70.334235,4.50168948 69.9415406,4.65047709 C69.7776003,4.71151817 69.607941,4.7134257 69.4535321,4.66573736 C68.881647,4.49787441 68.3783882,4.58752849 67.9952252,4.82024758 C67.7397832,4.9747578 67.5339046,5.19221662 67.3909334,5.44210351 C67.2498684,5.68626781 67.1717108,5.95713757 67.1717108,6.22228473 C67.1717108,6.5618257 67.3051506,6.89945914 67.6063434,7.16651383 C67.9208802,7.44501373 67.9494744,7.92571218 67.671157,8.24045521 C67.5205606,8.4102257 67.3127757,8.49606471 67.1030845,8.49606471 L67.1030845,8.49987978 C66.7847352,8.49987978 66.5026053,8.86040361 66.3481963,9.29722879 C66.2833827,9.48035201 66.245257,9.6730129 66.2395381,9.85995119 C66.2338193,10.0278141 66.2547884,10.1899545 66.3081643,10.331112 C66.4015722,10.5848139 66.6474828,10.7736598 67.1030845,10.7736598 C67.5243732,10.7736598 67.8655979,11.1151083 67.8655979,11.5366732 C67.8655979,11.8189881 67.711189,12.06506 67.4843412,12.1985873 L67.482435,12.1966798 Z M64.6973548,13.9325353 C64.752637,13.2286554 65.0290481,12.5095153 65.593308,11.8476011 C65.2578021,11.5938992 65.0233293,11.2486356 64.8765455,10.8537762 C64.7564496,10.5294955 64.7068862,10.1708792 64.7183239,9.81035532 C64.7297616,9.46699928 64.7964815,9.11982818 64.9108586,8.79554747 C65.109112,8.22901001 65.4541493,7.71969856 65.902126,7.38397266 C65.7305604,7.01391115 65.6504965,6.61905171 65.6504965,6.22228473 C65.6504965,5.68817534 65.8010929,5.15406595 66.0717852,4.6848127 C66.3405712,4.21937451 66.7275467,3.81116234 67.2060239,3.52121724 C67.6616256,3.24462488 68.195385,3.07294686 68.780614,3.05768659 C68.8111145,2.71623809 68.9197727,2.40531012 69.0913382,2.13444036 C69.3315299,1.75484118 69.6937238,1.46489608 70.1264501,1.27986533 C70.5191445,1.11200238 70.9747463,1.02997844 71.4532234,1.04523871 C72.1356729,1.06622158 72.8772172,1.289403 73.5444164,1.74530351 C73.7750767,1.32564614 74.1086763,0.986105166 74.5109021,0.726680605 C75.0027233,0.408122504 75.5917649,0.219276684 76.211307,0.160143144 C76.8117863,0.102917138 77.4408598,0.167773278 78.0318077,0.352804032 C78.8896353,0.621766261 79.6788366,1.14061538 80.2011583,1.91316647 C81.2801147,1.12154005 82.4963236,0.993735301 83.5504984,1.2722352 C84.0461321,1.40194748 84.5055464,1.62322137 84.8944282,1.90744387 C85.2928415,2.19738896 85.6283473,2.55982034 85.8666328,2.96421745 C86.2364518,3.59370351 86.3717979,4.30712106 86.1678256,5.014816 C86.4918938,5.22464469 86.7663986,5.52603499 86.9818086,5.88465129 C87.220094,6.28523334 87.3840344,6.76211672 87.4507543,7.25998298 C87.5174743,7.7559417 87.4869737,8.27669835 87.3363773,8.76693447 C87.2010312,9.21329732 86.9722772,9.6272321 86.634865,9.97249567 C86.762586,10.1136531 86.8788693,10.2700709 86.9799023,10.4417489 C87.2181878,10.842331 87.3821281,11.3192143 87.4488481,11.8170806 C87.515568,12.3130393 87.4850674,12.833796 87.3344711,13.3240321 C87.1400301,13.9611483 86.7549609,14.5372234 86.137325,14.9320829 C86.3432036,15.565384 86.2745774,16.2120379 86.0057915,16.8090959 C85.7865689,17.2974245 85.4300939,17.7476024 84.9840235,18.1176639 C84.5493909,18.4781877 84.0327881,18.7681328 83.4761533,18.9531636 C82.5287304,19.2659991 81.4573991,19.2850744 80.4718505,18.8425266 C80.1306258,19.6188928 79.4691454,20.1472796 78.6913818,20.4257795 C78.2700931,20.5764746 77.8240228,20.652776 77.3836713,20.652776 C76.9433198,20.652776 76.4953432,20.5764746 76.0759609,20.4257795 C75.3591983,20.1682624 74.7415624,19.7009167 74.3831811,19.0237423 C73.60923,19.519701 72.6923077,19.7486051 71.8077922,19.7486051 C71.3178773,19.7486051 70.8336813,19.6780263 70.3837984,19.544499 C69.9243841,19.4071566 69.5011892,19.2011429 69.1428079,18.9321807 C68.7100815,18.6059925 68.3783882,18.1958728 68.1991975,17.7113592 C67.415715,17.728527 66.6722645,17.4500271 66.0717852,16.9788664 C65.6257149,16.6297877 65.2597084,16.1719797 65.0157041,15.6531305 C64.7678873,15.1266513 64.6458852,14.5353159 64.6935422,13.9306278 L64.6973548,13.9325353 Z M69.2171529,20.9045704 C69.2171529,21.6485085 68.9159601,22.3218678 68.4279516,22.8082888 C67.939943,23.2966174 67.2670249,23.5980077 66.5254807,23.5980077 C65.7820301,23.5980077 65.109112,23.2966174 64.6230097,22.8082888 C64.1350012,22.3199603 63.8338084,21.6466009 63.8338084,20.9045704 C63.8338084,20.1606323 64.1350012,19.487273 64.6230097,19.0008519 C65.1110183,18.5125233 65.7839364,18.211133 66.5254807,18.211133 C67.2689312,18.211133 67.9418493,18.5125233 68.4279516,19.0008519 C68.9159601,19.4891805 69.2171529,20.1625398 69.2171529,20.9045704 Z M67.3509014,21.7305324 C67.5624989,21.5187962 67.6921261,21.2269435 67.6921261,20.9045704 C67.6921261,20.5821972 67.5605926,20.2903446 67.3509014,20.0786084 C67.1393039,19.8668721 66.8476426,19.7371599 66.5254807,19.7371599 C66.2033187,19.7371599 65.9116574,19.8687797 65.7000599,20.0786084 C65.4884624,20.2903446 65.3588352,20.5821972 65.3588352,20.9045704 C65.3588352,21.2269435 65.4903687,21.5187962 65.7000599,21.7305324 C65.9116574,21.9422686 66.2033187,22.0719809 66.5254807,22.0719809 C66.8476426,22.0719809 67.1393039,21.9403611 67.3509014,21.7305324 Z M64.9222963,24.9122983 C64.9222963,25.4788358 64.6935422,25.9900548 64.321817,26.3620238 C63.951998,26.7320853 63.4392077,26.9628969 62.8730415,26.9628969 C62.3068753,26.9628969 61.7959914,26.7339929 61.4242661,26.3620238 C61.0544471,25.9919623 60.8237868,25.4788358 60.8237868,24.9122983 C60.8237868,24.3457609 61.0525408,23.8345419 61.4242661,23.4625729 C61.7940851,23.0925113 62.3068753,22.8616998 62.8730415,22.8616998 C63.4392077,22.8616998 63.9500917,23.0906038 64.321817,23.4625729 C64.691636,23.8326344 64.9222963,24.3457609 64.9222963,24.9122983 Z M63.2447668,25.2823598 C63.340081,25.1869832 63.3972695,25.0572709 63.3972695,24.9122983 C63.3972695,24.7673258 63.3381747,24.635706 63.2447668,24.5422368 C63.1494526,24.4468602 63.0198253,24.3896342 62.8749478,24.3896342 C62.7300703,24.3896342 62.5985367,24.4487677 62.5051288,24.5422368 C62.4098146,24.6376135 62.3526261,24.7673258 62.3526261,24.9122983 C62.3526261,25.0572709 62.4117209,25.1869832 62.5051288,25.2823598 C62.600443,25.3777365 62.7300703,25.4349625 62.8749478,25.4349625 C63.0198253,25.4349625 63.1494526,25.375829 63.2447668,25.2823598 Z M61.4357038,28.0330232 C61.4357038,28.4221601 61.2774823,28.7731462 61.0239466,29.0268482 C60.7704108,29.2805501 60.4177484,29.4388754 60.0307729,29.4388754 C59.641891,29.4388754 59.2911349,29.2805501 59.0375992,29.0268482 C58.7840635,28.7731462 58.6258419,28.4202525 58.6258419,28.0330232 C58.6258419,27.6438864 58.7840635,27.2929002 59.0375992,27.0391982 C59.2911349,26.7854963 59.6437973,26.627171 60.0307729,26.627171 C60.4196547,26.627171 60.7704108,26.7854963 61.0239466,27.0391982 C61.2774823,27.2929002 61.4357038,27.6457939 61.4357038,28.0330232 Z M60.065086,28.1474752 L60.065086,28.0330232 L59.950709,28.1144975 C59.9752183,28.1183773 60.0432999,28.1377759 60.065086,28.1474752 Z M86.4042047,27.1307598 L86.4042047,35.2702055 C86.4042047,35.8081299 86.621521,36.2964585 86.9760898,36.6493522 C87.3287522,37.0022459 87.8167608,37.2216123 88.3543327,37.2216123 L89.3608504,37.2216123 C89.782139,37.2216123 90.1233638,37.5630608 90.1233638,37.9846257 C90.1233638,38.1162455 90.090957,38.2402352 90.0318622,38.3470571 L87.2239066,44.1059008 C88.4534595,43.1616717 89.9060475,41.6642579 91.2004139,40.3289844 C92.5900946,38.8945192 93.8082097,37.6393621 94.5573791,37.292191 C94.6603184,37.2445027 94.7689766,37.2216123 94.8757285,37.2216123 L94.8757285,37.2197047 L101.522939,37.2197047 C102.060511,37.2197047 102.548519,37.0022459 102.901182,36.6474447 C103.253844,36.294551 103.473067,35.8062224 103.473067,35.2682979 L103.473067,27.1288523 C103.473067,26.5909279 103.255751,26.1025993 102.901182,25.7497056 C102.548519,25.3968119 102.060511,25.1774455 101.522939,25.1774455 L88.3524264,25.1774455 C87.8148545,25.1774455 87.3268459,25.3949043 86.9741835,25.7497056 C86.621521,26.1025993 86.4022984,26.5909279 86.4022984,27.1288523 L86.4042047,27.1307598 Z M84.8791779,35.2702055 L84.8791779,27.1307598 C84.8791779,26.1712705 85.2680598,25.3014352 85.8971333,24.6719491 C86.5262069,24.042463 87.3935658,23.6533262 88.3543327,23.6533262 L101.524845,23.6533262 C102.483706,23.6533262 103.352971,24.042463 103.982045,24.6719491 C104.611118,25.3014352 105,26.1693629 105,27.1307598 L105,35.2702055 C105,36.2296948 104.611118,37.0995301 103.982045,37.7290162 C103.352971,38.3585023 102.485612,38.7476391 101.524845,38.7476391 L95.0663568,38.7476391 C94.5211597,39.0909951 93.4727038,40.1706591 92.2908081,41.3914806 C90.8706269,42.8564663 89.2636299,44.5122055 87.8911058,45.5098455 C86.2269204,46.7173142 88.316207,45.19701 87.6223199,45.7025064 C86.5490823,46.4826876 85.9123836,46.9481258 85.3557488,46.6753485 C84.6790182,46.3453452 84.8086454,45.5842393 85.5559086,44.0505823 L88.1446415,38.7419165 C87.2696574,38.6904131 86.4804561,38.3127215 85.8990396,37.7290162 C85.269966,37.0995301 84.8810842,36.2316024 84.8810842,35.2702055 L84.8791779,35.2702055 Z M86.2212015,45.1550443 C85.9829161,45.2046401 85.8266008,45.2065477 86.0210417,45.3019243 C86.1354187,45.3572428 86.1678256,45.2885716 86.2212015,45.1550443 Z M43.6062345,56.1958484 C43.9036147,56.4419202 44.2391206,56.5258517 44.5403134,56.4896085 C44.7233166,56.4667181 44.8929758,56.3999545 45.0321345,56.2988552 C45.1674806,56.1996634 45.2742325,56.0680436 45.3371398,55.9097183 C45.4362666,55.661739 45.4286415,55.3393658 45.2608885,54.9616742 C44.4793123,53.5920651 43.6443601,52.1614149 42.7445943,50.7860833 C41.8467348,49.4145666 40.8840617,48.100276 39.8451372,46.9652936 C39.5725386,46.6677184 39.3495035,46.4311842 39.1131243,46.2537836 C38.8977143,46.0916432 38.6479911,45.9638385 38.2915161,45.8532015 C37.9826982,45.7578249 37.6929431,45.7292119 37.4279697,45.7540098 C37.0162125,45.794068 36.6540186,45.9695611 36.3642635,46.2308932 C36.0630708,46.5017629 35.8381293,46.8641943 35.7123146,47.2666839 C35.6189067,47.5680742 35.5826873,47.8866323 35.6150941,48.2051904 C35.6799078,48.8575669 35.9506,49.1570496 36.3757012,49.6282104 L36.5262976,49.7960734 C37.5499719,50.9405935 38.6213032,52.0336102 39.7841361,53.0903838 C40.9355313,54.1395272 42.170803,55.1467049 43.5261705,56.1309922 C43.5547648,56.1519751 43.5795465,56.172958 43.6043282,56.1958484 L43.6062345,56.1958484 Z M44.7252229,58.0022826 C44.0313357,58.0900292 43.2726348,57.9030909 42.6225922,57.3556288 C41.2271927,56.3427285 39.951889,55.3012151 38.7604619,54.2177361 C37.5747535,53.1399796 36.4672028,52.0088123 35.3939653,50.8089737 C35.3139013,50.7193196 35.2795882,50.6830765 35.2490877,50.6468333 C34.6181079,49.948676 34.2158821,49.5023132 34.1015051,48.353978 C34.0500354,47.8313138 34.1072239,47.3086496 34.2578203,46.820321 C34.4617926,46.1584069 34.8392368,45.5556263 35.3501207,45.0978182 C35.8705361,44.6304725 36.5282039,44.313822 37.2773733,44.2394282 C37.7367876,44.1936474 38.2267025,44.2394282 38.7356802,44.3977534 C39.2732521,44.5637089 39.6659465,44.7697225 40.0205152,45.0367772 C40.3560211,45.2885716 40.630526,45.5785167 40.960313,45.9390405 C41.1719105,46.1698521 41.3796954,46.4082938 41.5836677,46.6505506 L49.5633703,35.2473151 C50.301102,34.192449 50.9454258,33.5057369 51.7384398,33.2367747 C52.5924547,32.9487371 53.4731577,33.1623809 54.597865,33.9520998 L72.3796772,46.4121089 C73.5062907,47.2018277 74.0076433,47.9553035 74.0286124,48.8594744 C74.0476752,49.6949741 73.6244803,50.5342888 72.8867486,51.5891549 L61.9237124,67.2557278 C62.0190265,67.3835326 62.1105281,67.5151524 62.2001235,67.6467722 C65.5513698,72.5891916 65.0843303,77.731902 63.1151395,82.3405031 C61.1916995,86.8422822 57.8347343,90.8061369 55.2745956,93.5320023 C53.4407509,95.4853167 53.4979394,96.6737101 53.6085038,98.9589352 C53.6332855,99.483507 53.6618798,100.06149 53.6733175,100.757739 C53.7019117,102.503133 53.8105699,104.250433 53.985948,105.990104 C54.1594198,107.712607 54.3996115,109.435109 54.6950854,111.148075 C54.7656179,111.562009 54.4873005,111.956869 54.0717307,112.027448 C53.6580672,112.098026 53.2634665,111.819526 53.192934,111.403684 C52.8955538,109.681181 52.6515495,107.922435 52.4704526,106.138891 C52.2931682,104.370608 52.1826038,102.583249 52.1521033,100.782537 C52.1425718,100.160681 52.1139776,99.5674384 52.0872896,99.0314215 C51.9557561,96.3227239 51.8890361,94.9130566 54.1651386,92.4885815 C56.6414008,89.8523701 59.883989,86.0296729 61.7140212,81.7453526 C63.5002088,77.5659466 63.938654,72.9211024 60.9419764,68.5013472 C59.7963,66.8112725 58.1244894,65.4206806 56.3459269,64.2914207 C54.5387702,63.1430855 52.6229553,62.2694352 51.0178646,61.6170587 C50.6042011,61.4491957 50.2515386,61.3976923 49.9598773,61.4396581 C49.6415279,61.4854389 49.3803671,61.6513943 49.1840199,61.8955586 C48.9552659,62.1816886 48.8046695,62.5765481 48.7398558,63.026726 L48.7360433,63.0477088 C48.6502605,63.6791025 48.7379496,64.4001501 49.0181732,65.0887697 C49.5729017,66.4564713 51.0883971,67.7898372 52.4437646,68.9801382 C53.206278,69.65159 53.9230406,70.281076 54.443456,70.8857642 C55.0649044,71.6087194 55.5567255,72.5624861 55.896044,73.6097221 C56.2429876,74.6741258 56.4355222,75.8491664 56.4488662,76.9803338 C56.4869919,80.1411169 54.2642654,81.228411 51.8185037,82.4263421 C49.0601115,83.7768758 45.9624008,85.2952725 46.6848823,90.9587396 C46.7382582,91.3745819 46.4427843,91.7560886 46.0272145,91.807592 C45.6116447,91.861003 45.230388,91.5653353 45.1789183,91.1494929 C45.1484178,90.9167738 45.1255424,90.6897774 45.1064795,90.470411 C44.807193,90.613476 44.49075,90.6897774 44.1495252,90.6955 C43.4918574,90.7069452 42.7998765,90.4398905 41.9763621,89.8638153 L24.955157,77.9379157 C24.8522176,83.277102 26.8633467,86.5542446 28.8744758,89.8294797 C29.3682032,90.6344589 29.8619306,91.4375305 30.3404078,92.2997357 C31.1010149,93.6674372 31.5165847,94.7814368 31.7663078,95.9316795 C32.0122184,97.0628469 32.0960948,98.2016444 32.1990341,99.6590001 L32.1971279,99.6590001 C32.1990341,99.6761679 32.1990341,99.6933357 32.1990341,99.7105035 L32.2695666,111.376979 C32.2714729,111.796636 31.9321545,112.138084 31.5127721,112.139992 C31.0933897,112.1419 30.752165,111.802359 30.7502587,111.382701 L30.6797262,99.7677295 L30.6797262,99.7677295 C30.5805995,98.3771375 30.5024419,97.2879359 30.2775004,96.2559602 C30.0563715,95.2430599 29.6903651,94.2587726 29.0117282,93.0417662 C28.5637516,92.2348795 28.0681179,91.4299004 27.5743904,90.6249212 C25.3421325,86.9891623 23.1117808,83.3534034 23.4644433,77.0680804 C23.4682558,76.9936866 23.4835061,76.9231078 23.5063815,76.8582517 C23.193751,76.566399 22.9611844,76.2726389 22.8029629,75.9674335 C22.5665838,75.511533 22.494145,75.0556325 22.5627712,74.5692114 C22.4350502,74.4566669 22.3035166,74.3231396 22.1662642,74.1686294 C21.8212269,73.7756775 21.5638787,73.3159619 21.4018446,72.8295408 C21.1845282,72.1752568 21.1387774,71.4675619 21.2855613,70.8018327 C21.4361577,70.1189357 21.7869138,69.4799119 22.35308,68.9820457 C22.6981173,68.6787479 23.1232185,68.4307685 23.6321962,68.260998 C24.1659556,68.0835974 24.6024945,68.0206488 25.0409397,68.0301865 C25.4679472,68.0397241 25.8549228,68.1141179 26.3276811,68.2133097 C27.9308655,68.5509431 29.5493001,69.0793299 31.1372343,69.6935557 C32.6870427,70.2925212 34.2082569,70.9735107 35.6494072,71.6354248 C35.6818141,71.64687 35.7123146,71.6621303 35.7428151,71.6792981 C36.5396416,72.1180308 36.9838057,72.7417943 37.1458398,73.3979858 C37.2544979,73.8443487 37.2316225,74.2983417 37.0943701,74.717999 C36.9609303,75.1300263 36.7188323,75.5077179 36.3909515,75.8129233 C35.8724424,76.2936217 35.1404295,76.5854744 34.2902271,76.5148956 C32.5631343,76.505358 30.9313556,76.4023512 29.3529529,76.2192279 C27.7650188,76.0341972 26.2075852,75.7614199 24.6406202,75.4123412 C24.303208,75.3379474 24.7016212,75.4276015 24.4290227,75.368468 C24.3413337,75.3493926 24.2574572,75.3322248 24.1773933,75.3131495 C24.3260834,75.5744816 24.6139322,75.851074 25.0638151,76.1639095 L42.8456273,88.6239185 C43.394637,89.0073328 43.8025817,89.1866409 44.1247436,89.1828259 C44.3916232,89.1790108 44.6585029,89.0168704 44.9577894,88.7135726 C44.9921025,88.679237 45.0283219,88.6487165 45.0664476,88.622011 C45.3161707,83.927571 48.3795683,82.4263421 51.1513044,81.0681782 C53.1433707,80.091521 54.9562463,79.2045179 54.9295583,77.0051318 C54.9181206,76.0322896 54.7503676,75.0136667 54.4472686,74.0866054 C54.1651386,73.2224927 53.7724442,72.4480341 53.2863419,71.8814967 C52.8307402,71.3512023 52.1578221,70.7598669 51.4410595,70.1303809 C49.9541584,68.8237204 48.2918792,67.3625497 47.6056172,65.6667524 C47.2243605,64.7282459 47.1080772,63.7306059 47.2281731,62.8455103 L47.2319856,62.8188048 C47.3330186,62.1053873 47.5903669,61.4568259 47.9906864,60.9551446 C48.4253191,60.4114975 49.0143607,60.041436 49.7501861,59.9384292 C50.2991957,59.8602203 50.9149253,59.9384292 51.5897496,60.2112065 C53.2615602,60.8902884 55.2612516,61.803997 57.1618162,63.0095582 C58.5133712,63.8679483 59.8153628,64.875126 60.9133821,66.0539817 L71.6381329,50.7269497 C72.1947677,49.9315082 72.5169296,49.347803 72.5054919,48.9033477 C72.4959605,48.5275636 72.1928614,48.1479644 71.5046931,47.6672659 L53.7228808,35.2072569 C53.0347125,34.7246509 52.5733919,34.5682331 52.2169169,34.6903153 C51.7975345,34.8314727 51.3609956,35.3331541 50.8043609,36.1285956 L42.56731,47.899985 C43.0705688,48.5676218 43.549046,49.2581489 44.0103666,49.9601212 C44.934914,51.3716961 45.7832102,52.8271441 46.5762241,54.2158286 L46.5743178,54.2177361 C46.5838492,54.2329964 46.5914744,54.2501642 46.6010058,54.267332 C46.9937002,55.0894789 46.9917939,55.8563074 46.7420708,56.4838859 C46.5724115,56.9111735 46.286469,57.2659747 45.9319003,57.5292143 C45.5792378,57.7886389 45.1617618,57.9584094 44.719504,58.0137278 L44.7252229,58.0022826 Z M24.8437642,73.9506282 C24.7474281,73.8705234 24.6436816,73.7904186 24.8437642,73.9773298 L24.8437642,73.9506282 Z M37.9884171,70.0693398 C38.4840508,70.2314802 38.9491839,70.1704391 39.3113778,69.9701481 C39.5325067,69.8480659 39.7136036,69.6763879 39.8394183,69.4741893 C39.9614205,69.2758059 40.0319529,69.0507169 40.0319529,68.8141827 C40.0319529,68.4422137 39.8546686,68.0282789 39.4371925,67.6372345 C37.9331348,66.441211 36.3452007,65.2013142 34.7343912,64.0739619 C33.1121439,62.9389794 31.4308019,61.889836 29.7208656,61.0657815 C29.2709827,60.8483227 28.9068826,60.6804597 28.5504076,60.5831755 C28.2149017,60.4916139 27.8584267,60.4591858 27.3856684,60.495429 C26.9720049,60.527857 26.6117173,60.6327714 26.3086182,60.7910967 C25.8320473,61.039076 25.4793849,61.4243978 25.2563497,61.8783908 C25.0256894,62.3457365 24.928469,62.887476 24.9723135,63.4292156 C25.0047203,63.8317051 25.1133785,64.2284721 25.3021005,64.5909035 C25.6928887,65.3424717 26.152303,65.5675607 26.8709718,65.9204544 C27.0596939,66.0139235 26.9586609,65.9605126 27.1149761,66.0387214 C28.8077559,66.8799437 30.5138796,67.6296044 32.2848169,68.2934261 C34.053848,68.9553402 35.9048492,69.5352304 37.8892903,70.0369117 C37.9236034,70.0464494 37.9579165,70.0559871 37.9903233,70.0693398 L37.9884171,70.0693398 Z M40.0433906,71.3054215 C39.3342532,71.6983734 38.4383,71.8223631 37.5023148,71.5114352 C35.4854669,71.0021237 33.5868085,70.4050657 31.7529638,69.7183536 C29.9172128,69.0316416 28.163432,68.260998 26.4401518,67.4045155 C26.1179899,67.2442826 26.2361794,67.3034162 26.2018663,67.2862484 C25.2048801,66.7979198 24.5700877,66.4850843 23.9486393,65.2890608 C23.664603,64.7415986 23.5006627,64.1464482 23.4530056,63.5493902 C23.3881919,62.7425035 23.536882,61.9241716 23.8914508,61.2050315 C24.2536446,60.4725386 24.8293422,59.84496 25.6109185,59.4386554 C26.0913019,59.1887685 26.6441241,59.0266281 27.2655725,58.9770323 C27.9251466,58.9236213 28.4417494,58.9751247 28.943102,59.1124672 C29.4215791,59.2421794 29.8543055,59.4405629 30.382346,59.6961724 C32.1628148,60.5545625 33.912783,61.6475792 35.6036564,62.83025 C37.2964362,64.0148284 38.8977143,65.2661704 40.4055845,66.466009 C40.4189285,66.4774542 40.4341788,66.4888994 40.4475227,66.5022521 C41.2233801,67.2175772 41.5493546,68.0378166 41.5493546,68.8179978 C41.5493546,69.3463846 41.3968519,69.8461584 41.1299722,70.2753534 C40.8669051,70.7007334 40.4913673,71.0593497 40.0414844,71.3073291 L40.0433906,71.3054215 Z M40.7372778,63.6371367 C41.175723,63.8870236 41.6275122,63.9213592 42.0068626,63.8049997 C42.2413355,63.7325134 42.4491204,63.6047086 42.6092482,63.4368457 C42.7655634,63.2727978 42.8761279,63.0725068 42.9218787,62.8512329 C42.99813,62.4926166 42.910441,62.0596065 42.5844665,61.5979834 C41.3987582,60.1692407 40.1387048,58.675642 38.7909624,57.2392692 C37.456564,55.8162492 36.051633,54.467623 34.5818885,53.3345481 C34.1968192,53.0388804 33.8822825,52.8042537 33.5544017,52.6363908 C33.2474901,52.479973 32.9138905,52.3750587 32.4621013,52.3178327 C32.0598755,52.2663293 31.6957753,52.2949423 31.3698008,52.3845964 C30.866542,52.5257538 30.4528785,52.8233291 30.1459668,53.2124659 C29.8295238,53.616863 29.6274577,54.1128218 29.5607378,54.6354859 C29.5111745,55.0246228 29.5359561,55.4271124 29.6446143,55.8143417 C29.8657432,56.6097832 30.2622501,56.9188036 30.879886,57.4014096 C31.0838583,57.5597349 30.8913237,57.4071322 31.0895772,57.5635499 C32.5383526,58.7061625 34.02716,59.7724738 35.6036564,60.7720213 C37.1763403,61.7696614 38.8386195,62.7005377 40.6362448,63.5780032 C40.6705579,63.595171 40.7029647,63.6142463 40.7334653,63.6352292 L40.7372778,63.6371367 Z M42.4548392,65.2585402 C41.6904196,65.4931668 40.8039977,65.4321258 39.9671393,64.9476123 C38.1199506,64.0453489 36.4119206,63.0877671 34.7915797,62.061514 C33.173145,61.035261 31.6443057,59.9403367 30.1516857,58.7633885 C29.810461,58.4944263 30.0163396,58.6546591 29.9477134,58.6012482 C29.0879795,57.9297964 28.5389699,57.5006013 28.1824949,56.2206463 C28.0204608,55.6388486 27.9823351,55.0322529 28.0566802,54.4447326 C28.1577132,53.6492911 28.4665311,52.8881852 28.9507271,52.2701444 C29.4463608,51.6387508 30.1288103,51.1504222 30.9656687,50.9177031 C31.4765527,50.7746381 32.0408126,50.7307648 32.6527296,50.8089737 C33.3065848,50.8929051 33.7945934,51.0455078 34.2463826,51.2763194 C34.6752964,51.4956857 35.0527405,51.7741856 35.5121548,52.1289869 C37.0562444,53.3192878 38.5183639,54.7194174 39.9004194,56.1939408 C41.2500681,57.6322211 42.5387157,59.1601555 43.7549246,60.6270488 C43.7778,60.6499392 43.7968628,60.6766447 43.8159256,60.7033501 C44.4202175,61.550295 44.5689076,62.4086851 44.4106861,63.1602533 C44.3039342,63.6714723 44.0542111,64.1235578 43.7091738,64.4859891 C43.3698553,64.8426979 42.9352227,65.1116601 42.4510267,65.2604478 L42.4548392,65.2585402 Z M61.1268859,43.5317332 C61.1021042,43.5145654 61.0735099,43.5107503 61.0449157,43.5164729 C61.0163214,43.5221955 60.9915397,43.5355483 60.9743832,43.5603462 C60.9572266,43.5851442 60.9515078,43.6137572 60.9572266,43.6442777 C60.9629455,43.6728907 60.9762895,43.6976886 61.0010711,43.7148564 L61.0029774,43.7148564 C61.0258528,43.7301167 61.0563534,43.7358393 61.0849476,43.7301167 C61.1135419,43.7243941 61.1383236,43.7110414 61.1554801,43.6862434 L61.1554801,43.6843359 C61.1707304,43.6614455 61.1764492,43.630925 61.1707304,43.602312 C61.1650115,43.573699 61.1516675,43.548901 61.1268859,43.5317332 L61.1249796,43.5317332 L61.1268859,43.5317332 Z M60.8809753,42.5760589 C61.1459487,42.5283706 61.4318912,42.583689 61.6720829,42.7534595 L61.7159275,42.7839801 L61.7235526,42.7916102 C61.9351501,42.9594732 62.0666836,43.1921922 62.1105281,43.4382641 C62.1581852,43.7034112 62.102903,43.9895413 61.9332438,44.2298905 L61.9027432,44.2737638 L61.8951181,44.2813939 C61.7273652,44.4931301 61.4947986,44.6247499 61.248888,44.6686232 C60.9839146,44.7163115 60.6979721,44.6609931 60.4577804,44.4912226 L60.4139358,44.460702 L60.4063107,44.4530719 C60.1947132,44.285209 60.0631797,44.0524899 60.0193352,43.806418 C59.9716781,43.5412709 60.0269603,43.2551409 60.1966195,43.0147916 C60.3662788,42.7725349 60.6140956,42.6237472 60.8809753,42.5760589 Z M51.854723,52.4017642 C51.6984078,52.4284696 51.551624,52.3254628 51.524936,52.1690451 C51.498248,52.0126273 51.6011873,51.8657472 51.7575026,51.8390418 L57.0035947,50.913888 C57.15991,50.8871825 57.3066938,50.9901894 57.3333817,51.1466071 C57.3600697,51.3030249 57.2571304,51.4499049 57.1008152,51.4766104 L51.854723,52.4017642 Z M53.6542546,53.3135652 C53.4979394,53.3402707 53.3511556,53.2372639 53.3244676,53.0808461 C53.2977796,52.9244284 53.4007189,52.7775483 53.5570342,52.7508428 L58.8031263,51.825689 C58.9594415,51.7989836 59.1062254,51.9019904 59.1329133,52.0584081 C59.1596013,52.2148259 59.056662,52.361706 58.9003468,52.3884114 L53.6542546,53.3135652 Z M37.8626023,80.6771338 L34.2120695,78.1191313 L33.8765636,78.5979223 L37.5290027,81.1559247 L37.8645086,80.6771338 L37.8626023,80.6771338 Z M34.3664785,77.0680804 L38.794775,80.1716374 C39.010185,80.3223326 39.0616547,80.6180003 38.9129645,80.8335516 L38.0341679,82.0906162 C37.8835715,82.3061675 37.5880975,82.3576709 37.3726875,82.2088832 L32.944391,79.1053262 C32.728981,78.954631 32.6775113,78.6589633 32.8262014,78.443412 L33.7049981,77.1863474 C33.8555945,76.9707961 34.1510684,76.9192927 34.3664785,77.0680804 Z" id="Shape"></path>
            </g>
        </g>
    </g>
</svg>