<?xml version="1.0" encoding="UTF-8"?>
<svg width="492px" height="465px" viewBox="0 0 492 465" version="1.1" xmlns="http://www.w3.org/2000/svg" xmlns:xlink="http://www.w3.org/1999/xlink">
    <!-- Generator: Sketch 55 (78076) - https://sketchapp.com -->
    <title>Dots</title>
    <desc>Created with Sketch.</desc>
    <g id="FINAL-DESIGNS" stroke="none" stroke-width="1" fill="none" fill-rule="evenodd" opacity="0.435398065">
        <g id="SRM-LandingPage-v3" transform="translate(-651.000000, -1453.000000)" fill="#651A73">
            <g id="SRM-INDEX" transform="translate(-0.782369, 2.000000)">
                <g id="Dots" transform="translate(897.782369, 1683.500000) rotate(-19.000000) translate(-897.782369, -1683.500000) translate(697.782369, 1505.000000)">
                    <rect id="Rectangle" x="0" y="0" width="10.803005" height="10.8084112" rx="5.4015025"></rect>
                    <rect id="Rectangle-Copy-34" x="43.21202" y="0" width="10.803005" height="10.8084112" rx="5.4015025"></rect>
                    <rect id="Rectangle-Copy-43" x="86.4240401" y="0" width="10.803005" height="10.8084112" rx="5.4015025"></rect>
                    <rect id="Rectangle-Copy-52" x="129.63606" y="0" width="10.803005" height="10.8084112" rx="5.4015025"></rect>
                    <rect id="Rectangle-Copy-61" x="172.84808" y="0" width="10.803005" height="10.8084112" rx="5.4015025"></rect>
                    <rect id="Rectangle-Copy-70" x="216.0601" y="0" width="10.803005" height="10.8084112" rx="5.4015025"></rect>
                    <rect id="Rectangle-Copy-79" x="259.27212" y="0" width="10.803005" height="10.8084112" rx="5.4015025"></rect>
                    <rect id="Rectangle-Copy-88" x="302.48414" y="0" width="10.803005" height="10.8084112" rx="5.4015025"></rect>
                    <rect id="Rectangle-Copy-97" x="345.69616" y="0" width="10.803005" height="10.8084112" rx="5.4015025"></rect>
                    <rect id="Rectangle-Copy-106" x="388.90818" y="0" width="10.803005" height="10.8084112" rx="5.4015025"></rect>
                    <rect id="Rectangle-Copy-26" x="0" y="43.2336449" width="10.803005" height="10.8084112" rx="5.4015025"></rect>
                    <rect id="Rectangle-Copy-35" x="43.21202" y="43.2336449" width="10.803005" height="10.8084112" rx="5.4015025"></rect>
                    <rect id="Rectangle-Copy-44" x="86.4240401" y="43.2336449" width="10.803005" height="10.8084112" rx="5.4015025"></rect>
                    <rect id="Rectangle-Copy-53" x="129.63606" y="43.2336449" width="10.803005" height="10.8084112" rx="5.4015025"></rect>
                    <rect id="Rectangle-Copy-62" x="172.84808" y="43.2336449" width="10.803005" height="10.8084112" rx="5.4015025"></rect>
                    <rect id="Rectangle-Copy-71" x="216.0601" y="43.2336449" width="10.803005" height="10.8084112" rx="5.4015025"></rect>
                    <rect id="Rectangle-Copy-80" x="259.27212" y="43.2336449" width="10.803005" height="10.8084112" rx="5.4015025"></rect>
                    <rect id="Rectangle-Copy-89" x="302.48414" y="43.2336449" width="10.803005" height="10.8084112" rx="5.4015025"></rect>
                    <rect id="Rectangle-Copy-98" x="345.69616" y="43.2336449" width="10.803005" height="10.8084112" rx="5.4015025"></rect>
                    <rect id="Rectangle-Copy-107" x="388.90818" y="43.2336449" width="10.803005" height="10.8084112" rx="5.4015025"></rect>
                    <rect id="Rectangle-Copy-27" x="0" y="86.4672897" width="10.803005" height="10.8084112" rx="5.4015025"></rect>
                    <rect id="Rectangle-Copy-36" x="43.21202" y="86.4672897" width="10.803005" height="10.8084112" rx="5.4015025"></rect>
                    <rect id="Rectangle-Copy-45" x="86.4240401" y="86.4672897" width="10.803005" height="10.8084112" rx="5.4015025"></rect>
                    <rect id="Rectangle-Copy-54" x="129.63606" y="86.4672897" width="10.803005" height="10.8084112" rx="5.4015025"></rect>
                    <rect id="Rectangle-Copy-63" x="172.84808" y="86.4672897" width="10.803005" height="10.8084112" rx="5.4015025"></rect>
                    <rect id="Rectangle-Copy-72" x="216.0601" y="86.4672897" width="10.803005" height="10.8084112" rx="5.4015025"></rect>
                    <rect id="Rectangle-Copy-81" x="259.27212" y="86.4672897" width="10.803005" height="10.8084112" rx="5.4015025"></rect>
                    <rect id="Rectangle-Copy-90" x="302.48414" y="86.4672897" width="10.803005" height="10.8084112" rx="5.4015025"></rect>
                    <rect id="Rectangle-Copy-99" x="345.69616" y="86.4672897" width="10.803005" height="10.8084112" rx="5.4015025"></rect>
                    <rect id="Rectangle-Copy-108" x="388.90818" y="86.4672897" width="10.803005" height="10.8084112" rx="5.4015025"></rect>
                    <rect id="Rectangle-Copy-28" x="0" y="129.700935" width="10.803005" height="10.8084112" rx="5.4015025"></rect>
                    <rect id="Rectangle-Copy-37" x="43.21202" y="129.700935" width="10.803005" height="10.8084112" rx="5.4015025"></rect>
                    <rect id="Rectangle-Copy-46" x="86.4240401" y="129.700935" width="10.803005" height="10.8084112" rx="5.4015025"></rect>
                    <rect id="Rectangle-Copy-55" x="129.63606" y="129.700935" width="10.803005" height="10.8084112" rx="5.4015025"></rect>
                    <rect id="Rectangle-Copy-64" x="172.84808" y="129.700935" width="10.803005" height="10.8084112" rx="5.4015025"></rect>
                    <rect id="Rectangle-Copy-73" x="216.0601" y="129.700935" width="10.803005" height="10.8084112" rx="5.4015025"></rect>
                    <rect id="Rectangle-Copy-82" x="259.27212" y="129.700935" width="10.803005" height="10.8084112" rx="5.4015025"></rect>
                    <rect id="Rectangle-Copy-91" x="302.48414" y="129.700935" width="10.803005" height="10.8084112" rx="5.4015025"></rect>
                    <rect id="Rectangle-Copy-100" x="345.69616" y="129.700935" width="10.803005" height="10.8084112" rx="5.4015025"></rect>
                    <rect id="Rectangle-Copy-109" x="388.90818" y="129.700935" width="10.803005" height="10.8084112" rx="5.4015025"></rect>
                    <rect id="Rectangle-Copy-29" x="0" y="172.934579" width="10.803005" height="10.8084112" rx="5.4015025"></rect>
                    <rect id="Rectangle-Copy-38" x="43.21202" y="172.934579" width="10.803005" height="10.8084112" rx="5.4015025"></rect>
                    <rect id="Rectangle-Copy-47" x="86.4240401" y="172.934579" width="10.803005" height="10.8084112" rx="5.4015025"></rect>
                    <rect id="Rectangle-Copy-56" x="129.63606" y="172.934579" width="10.803005" height="10.8084112" rx="5.4015025"></rect>
                    <rect id="Rectangle-Copy-65" x="172.84808" y="172.934579" width="10.803005" height="10.8084112" rx="5.4015025"></rect>
                    <rect id="Rectangle-Copy-74" x="216.0601" y="172.934579" width="10.803005" height="10.8084112" rx="5.4015025"></rect>
                    <rect id="Rectangle-Copy-83" x="259.27212" y="172.934579" width="10.803005" height="10.8084112" rx="5.4015025"></rect>
                    <rect id="Rectangle-Copy-92" x="302.48414" y="172.934579" width="10.803005" height="10.8084112" rx="5.4015025"></rect>
                    <rect id="Rectangle-Copy-101" x="345.69616" y="172.934579" width="10.803005" height="10.8084112" rx="5.4015025"></rect>
                    <rect id="Rectangle-Copy-110" x="388.90818" y="172.934579" width="10.803005" height="10.8084112" rx="5.4015025"></rect>
                    <rect id="Rectangle-Copy-30" x="0" y="216.168224" width="10.803005" height="10.8084112" rx="5.4015025"></rect>
                    <rect id="Rectangle-Copy-39" x="43.21202" y="216.168224" width="10.803005" height="10.8084112" rx="5.4015025"></rect>
                    <rect id="Rectangle-Copy-48" x="86.4240401" y="216.168224" width="10.803005" height="10.8084112" rx="5.4015025"></rect>
                    <rect id="Rectangle-Copy-57" x="129.63606" y="216.168224" width="10.803005" height="10.8084112" rx="5.4015025"></rect>
                    <rect id="Rectangle-Copy-66" x="172.84808" y="216.168224" width="10.803005" height="10.8084112" rx="5.4015025"></rect>
                    <rect id="Rectangle-Copy-75" x="216.0601" y="216.168224" width="10.803005" height="10.8084112" rx="5.4015025"></rect>
                    <rect id="Rectangle-Copy-84" x="259.27212" y="216.168224" width="10.803005" height="10.8084112" rx="5.4015025"></rect>
                    <rect id="Rectangle-Copy-93" x="302.48414" y="216.168224" width="10.803005" height="10.8084112" rx="5.4015025"></rect>
                    <rect id="Rectangle-Copy-102" x="345.69616" y="216.168224" width="10.803005" height="10.8084112" rx="5.4015025"></rect>
                    <rect id="Rectangle-Copy-111" x="388.90818" y="216.168224" width="10.803005" height="10.8084112" rx="5.4015025"></rect>
                    <rect id="Rectangle-Copy-31" x="0" y="259.401869" width="10.803005" height="10.8084112" rx="5.4015025"></rect>
                    <rect id="Rectangle-Copy-40" x="43.21202" y="259.401869" width="10.803005" height="10.8084112" rx="5.4015025"></rect>
                    <rect id="Rectangle-Copy-49" x="86.4240401" y="259.401869" width="10.803005" height="10.8084112" rx="5.4015025"></rect>
                    <rect id="Rectangle-Copy-58" x="129.63606" y="259.401869" width="10.803005" height="10.8084112" rx="5.4015025"></rect>
                    <rect id="Rectangle-Copy-67" x="172.84808" y="259.401869" width="10.803005" height="10.8084112" rx="5.4015025"></rect>
                    <rect id="Rectangle-Copy-76" x="216.0601" y="259.401869" width="10.803005" height="10.8084112" rx="5.4015025"></rect>
                    <rect id="Rectangle-Copy-85" x="259.27212" y="259.401869" width="10.803005" height="10.8084112" rx="5.4015025"></rect>
                    <rect id="Rectangle-Copy-94" x="302.48414" y="259.401869" width="10.803005" height="10.8084112" rx="5.4015025"></rect>
                    <rect id="Rectangle-Copy-103" x="345.69616" y="259.401869" width="10.803005" height="10.8084112" rx="5.4015025"></rect>
                    <rect id="Rectangle-Copy-112" x="388.90818" y="259.401869" width="10.803005" height="10.8084112" rx="5.4015025"></rect>
                    <rect id="Rectangle-Copy-32" x="0" y="302.635514" width="10.803005" height="10.8084112" rx="5.4015025"></rect>
                    <rect id="Rectangle-Copy-41" x="43.21202" y="302.635514" width="10.803005" height="10.8084112" rx="5.4015025"></rect>
                    <rect id="Rectangle-Copy-50" x="86.4240401" y="302.635514" width="10.803005" height="10.8084112" rx="5.4015025"></rect>
                    <rect id="Rectangle-Copy-59" x="129.63606" y="302.635514" width="10.803005" height="10.8084112" rx="5.4015025"></rect>
                    <rect id="Rectangle-Copy-68" x="172.84808" y="302.635514" width="10.803005" height="10.8084112" rx="5.4015025"></rect>
                    <rect id="Rectangle-Copy-77" x="216.0601" y="302.635514" width="10.803005" height="10.8084112" rx="5.4015025"></rect>
                    <rect id="Rectangle-Copy-86" x="259.27212" y="302.635514" width="10.803005" height="10.8084112" rx="5.4015025"></rect>
                    <rect id="Rectangle-Copy-95" x="302.48414" y="302.635514" width="10.803005" height="10.8084112" rx="5.4015025"></rect>
                    <rect id="Rectangle-Copy-104" x="345.69616" y="302.635514" width="10.803005" height="10.8084112" rx="5.4015025"></rect>
                    <rect id="Rectangle-Copy-113" x="388.90818" y="302.635514" width="10.803005" height="10.8084112" rx="5.4015025"></rect>
                    <rect id="Rectangle-Copy-33" x="0" y="345.869159" width="10.803005" height="10.8084112" rx="5.4015025"></rect>
                    <rect id="Rectangle-Copy-42" x="43.21202" y="345.869159" width="10.803005" height="10.8084112" rx="5.4015025"></rect>
                    <rect id="Rectangle-Copy-51" x="86.4240401" y="345.869159" width="10.803005" height="10.8084112" rx="5.4015025"></rect>
                    <rect id="Rectangle-Copy-60" x="129.63606" y="345.869159" width="10.803005" height="10.8084112" rx="5.4015025"></rect>
                    <rect id="Rectangle-Copy-69" x="172.84808" y="345.869159" width="10.803005" height="10.8084112" rx="5.4015025"></rect>
                    <rect id="Rectangle-Copy-78" x="216.0601" y="345.869159" width="10.803005" height="10.8084112" rx="5.4015025"></rect>
                    <rect id="Rectangle-Copy-87" x="259.27212" y="345.869159" width="10.803005" height="10.8084112" rx="5.4015025"></rect>
                    <rect id="Rectangle-Copy-96" x="302.48414" y="345.869159" width="10.803005" height="10.8084112" rx="5.4015025"></rect>
                    <rect id="Rectangle-Copy-105" x="345.69616" y="345.869159" width="10.803005" height="10.8084112" rx="5.4015025"></rect>
                    <rect id="Rectangle-Copy-114" x="388.90818" y="345.869159" width="10.803005" height="10.8084112" rx="5.4015025"></rect>
                </g>
            </g>
        </g>
    </g>
</svg>