<?xml version="1.0" encoding="UTF-8"?>
<svg width="152px" height="118px" viewBox="0 0 152 118" version="1.1" xmlns="http://www.w3.org/2000/svg" xmlns:xlink="http://www.w3.org/1999/xlink">
    <!-- Generator: Sketch 55 (78076) - https://sketchapp.com -->
    <title>Group 10</title>
    <desc>Created with Sketch.</desc>
    <g id="FINAL-DESIGNS" stroke="none" stroke-width="1" fill="none" fill-rule="evenodd" opacity="0.065398065">
        <g id="SRM-LandingPage-v3-Expanded" transform="translate(-485.000000, -2150.000000)" fill="#FFFFFF" fill-rule="nonzero">
            <g id="SRM-INDEX" transform="translate(-9.000000, 0.000000)">
                <g id="Group" transform="translate(3.782369, 1944.000000)">
                    <g id="Group-2">
                        <g id="Group-10" transform="translate(491.000000, 206.000000)">
                            <path d="M149.489253,103.292674 L141.450808,103.292674 L141.450808,24.5895527 C141.450808,22.0589646 139.413828,20 136.91026,20 L128.529802,20 C127.696287,20 127.01981,20.6837777 127.01981,21.5262896 C127.01981,22.3688014 127.696287,23.0525791 128.529802,23.0525791 L136.91026,23.0525791 C137.748306,23.0525791 138.430823,23.7416989 138.430823,24.5895527 L138.430823,103.292674 L11.8640107,103.292674 L1.50999245,103.292674 C0.676476618,103.292674 0,103.976452 0,104.818963 L0,109.114705 C0,114.014095 3.94259029,118 8.78966605,118 L142.210334,118 C147.056655,118 151,114.014095 151,109.114705 L151,104.818963 C150.999245,103.976452 150.322768,103.292674 149.489253,103.292674 Z M147.97926,109.114705 C147.97926,112.330597 145.391133,114.947421 142.209579,114.947421 L8.78966605,114.947421 C5.60886696,114.947421 3.0199849,112.331361 3.0199849,109.114705 L3.0199849,106.345253 L11.8640107,106.345253 L139.940815,106.345253 L147.97926,106.345253 L147.97926,109.114705 Z" id="Shape"></path>
                            <path d="M18.5968064,53 C19.4782435,53 20.1936128,52.3432048 20.1936128,51.5339393 L20.1936128,30.9321214 L23.4031936,30.9321214 C24.2846307,30.9321214 25,30.2753262 25,29.4660607 C25,28.6567952 24.2846307,28 23.4031936,28 L18.5968064,28 C17.7153693,28 17,28.6567952 17,29.4660607 L17,51.5339393 C17,52.3439378 17.7153693,53 18.5968064,53 Z" id="Path"></path>
                            <path d="M135.403194,75 C134.521756,75 133.806387,75.6567952 133.806387,76.4660607 L133.806387,97.0678786 L130.596806,97.0678786 C129.715369,97.0678786 129,97.7246738 129,98.5339393 C129,99.3432048 129.715369,100 130.596806,100 L135.403194,100 C136.284631,100 137,99.3432048 137,98.5339393 L137,76.4660607 C137,75.6567952 136.285429,75 135.403194,75 Z" id="Path"></path>
                            <path d="M137,29.5675098 C137,28.7022444 136.353419,28 135.556738,28 L130.443262,28 C129.646581,28 129,28.7022444 129,29.5675098 C129,30.4327752 129.646581,31.1350196 130.443262,31.1350196 L134.113476,31.1350196 L134.113476,37.4324902 C134.113476,38.2977556 134.760058,39 135.556738,39 C136.353419,39 137,38.2977556 137,37.4324902 L137,29.5675098 Z" id="Path"></path>
                            <path d="M12.5514184,100 C13.4078014,100 14.1028369,99.3180867 14.1028369,98.4778721 L14.1028369,24.5770387 C14.1028369,23.7322577 14.8033023,23.0442559 15.6651152,23.0442559 L23.4485816,23.0442559 C24.3049645,23.0442559 25,22.3623426 25,21.5221279 C25,20.6819133 24.3049645,20 23.4485816,20 L15.6651152,20 C13.0928635,20 11,22.0533506 11,24.5770387 L11,98.4786331 C11,99.3188477 11.6942598,100 12.5514184,100 Z" id="Path"></path>
                            <circle id="Oval" cx="38" cy="14" r="2"></circle>
                            <circle id="Oval" cx="43" cy="14" r="2"></circle>
                            <circle id="Oval" cx="49" cy="14" r="2"></circle>
                            <path d="M137,42.4505893 C137,41.649864 136.104,41 135,41 C133.896,41 133,41.649864 133,42.4505893 L133,43.5494107 C133,44.350136 133.896,45 135,45 C136.104,45 137,44.350136 137,43.5494107 L137,42.4505893 Z" id="Path"></path>
                            <path d="M28,75 C29.104,75 30,74.350136 30,73.5494107 L30,72.4505893 C30,71.649864 29.104,71 28,71 C26.896,71 26,71.649864 26,72.4505893 L26,73.5494107 C26,74.350136 26.895,75 28,75 Z" id="Path"></path>
                            <path d="M27.4965099,69 C28.3221705,69 28.9922719,68.3212693 28.9922719,67.484976 L28.9922719,24.3954213 L47.3168523,24.3954213 C48.1425129,24.3954213 48.8126143,23.7166905 48.8126143,22.8803973 C48.8126143,22.044104 48.1425129,21.3653733 47.3168523,21.3653733 L28.9922719,21.3653733 L28.9922719,18.5587913 C28.9922719,13.3046882 33.1991025,9.03004798 38.3714476,9.03004798 L51.504238,9.03004798 C52.3298986,9.03004798 53,8.35131723 53,7.51502399 C53,6.67873075 52.3298986,6 51.504238,6 L38.3706997,6 C31.549277,6 26,11.6336167 26,18.5587913 L26,67.484976 C26.0007479,68.3220268 26.6701014,69 27.4965099,69 Z" id="Path"></path>
                            <path d="M123,22 C121.896,22 121,22.649864 121,23.4505893 L121,24.5494107 C121,25.350136 121.896,26 123,26 C124.104,26 125,25.350136 125,24.5494107 L125,23.4505893 C125,22.6491387 124.105,22 123,22 Z" id="Path"></path>
                            <path d="M39.6223915,90 L112.377609,90 C119.337818,90 125,84.3656258 125,77.4412087 L125,28.515024 C125,27.6787307 124.316265,27 123.473806,27 C122.631346,27 121.947611,27.6787307 121.947611,28.515024 L121.947611,60.5895968 L115.542936,60.5895968 C114.700477,60.5895968 114.016741,61.2683276 114.016741,62.1046208 L114.016741,71.9484892 C114.016741,72.7847824 114.700477,73.4635132 115.542936,73.4635132 C116.385395,73.4635132 117.06913,72.7847824 117.06913,71.9484892 L117.06913,63.6196448 L121.947611,63.6196448 L121.947611,77.4419662 C121.947611,82.6960694 117.655189,86.9707095 112.377609,86.9707095 L39.6223915,86.9707095 C34.345574,86.9707095 30.052389,82.6960694 30.052389,77.4419662 C30.052389,76.6056729 29.3686538,75.9269422 28.5261945,75.9269422 C27.6837351,75.9269422 27,76.6056729 27,77.4419662 C27.0007631,84.3663833 32.6621815,90 39.6223915,90 Z" id="Path"></path>
                            <path d="M19.8865235,96.8649804 L19.8865235,90.5675098 C19.8865235,89.7022444 19.2399423,89 18.4432618,89 C17.6465813,89 17,89.7022444 17,90.5675098 L17,98.4324902 C17,99.2977556 17.6465813,100 18.4432618,100 L23.5567382,100 C24.3534187,100 25,99.2977556 25,98.4324902 C25,97.5672248 24.3534187,96.8649804 23.5567382,96.8649804 L19.8865235,96.8649804 Z" id="Path"></path>
                            <path d="M17,86.5494107 C17,87.350136 17.896,88 19,88 C20.104,88 21,87.350136 21,86.5494107 L21,85.4505893 C21,84.649864 20.104,84 19,84 C17.896,84 17,84.649864 17,85.4505893 L17,86.5494107 Z" id="Path"></path>
                            <path d="M83.5565601,108 L67.4434399,108 C66.6466611,108 66,108.896 66,110 C66,111.104 66.6466611,112 67.4434399,112 L83.5565601,112 C84.3533389,112 85,111.104 85,110 C85,108.896 84.3540606,108 83.5565601,108 Z" id="Path"></path>
                            <path d="M75.4483126,45 C87.262617,45 96.9673592,35.8035835 97.8278187,24.1784824 L116.417674,24.1784824 C117.252425,24.1784824 117.929905,23.4995117 117.929905,22.6629227 C117.929905,21.8263337 117.252425,21.1473629 116.417674,21.1473629 L97.8527705,21.1473629 C97.5775444,16.5211168 95.9012364,12.2684561 93.2442466,8.80767547 L111.493094,8.80767547 C116.721632,8.80767547 120.975538,13.0838273 120.975538,18.3397885 C120.975538,19.1763775 121.653018,19.8553482 122.487769,19.8553482 C123.322521,19.8553482 124,19.1763775 124,18.3397885 C124,11.4121649 118.389623,5.77655597 111.493094,5.77655597 L90.4473754,5.77655597 C86.4686958,2.18846827 81.2091565,0 75.4483126,0 C63.069946,0 53,10.0936279 53,22.5 C53,34.9063721 63.069946,45 75.4483126,45 Z M75.4483126,3.03111949 C86.1586884,3.03111949 94.8721632,11.7645325 94.8721632,22.5 C94.8721632,33.2354675 86.1586884,41.9688805 75.4483126,41.9688805 C64.7379368,41.9688805 56.0244619,33.2354675 56.0244619,22.5 C56.0244619,11.7645325 64.7379368,3.03111949 75.4483126,3.03111949 Z" id="Shape"></path>
                            <path d="M64.4699401,33 L69.4446697,33 C70.165315,33 70.7618124,32.4594442 70.8874295,31.7468587 C71.5860367,31.9043615 72.3008051,31.9846421 73.0273272,31.9846421 L82.6102198,31.9846421 C84.346086,31.9846421 85.7785614,30.6129914 85.9489892,28.8613461 C86.8194934,28.1441731 87.3425306,27.076824 87.3888105,25.9169611 C87.4049718,25.5033251 87.360161,25.0965703 87.2551128,24.7028132 C87.7348084,24.0598042 88,23.2638798 88,22.4129059 C88,21.7729552 87.839122,21.1544126 87.5386695,20.6107985 C87.8376528,20.0220744 88,19.359951 88,18.6886526 C88,17.3246477 87.2793547,16.0753293 86.0988481,15.4162642 C85.5875646,15.1303125 85.0101669,14.9789263 84.4276269,14.9789263 L79.5300306,14.9827492 C79.7952221,13.2930346 79.8929243,11.5750306 79.8209332,9.86849537 L79.8150564,9.72322579 C79.808445,9.56725213 79.7871415,9.39904525 79.751146,9.22625091 C79.4029443,7.54188835 78.0057299,6.26810351 76.2742713,6.05631575 L75.9627997,6.01808692 C75.2509697,5.93016059 74.5332628,6.16565023 73.9962682,6.66262511 C73.4607428,7.15807083 73.1544135,7.86989177 73.1544135,8.62988105 L73.1558827,9.89525555 C73.1573519,10.8005144 72.9898625,11.6820714 72.657822,12.5169892 C72.6556182,12.5231058 72.6526798,12.529987 72.6497414,12.5361036 C72.310355,13.3840192 71.8203749,14.1424793 71.1937588,14.7885467 L70.3519041,15.6571059 C70.1014046,15.4499056 69.7884638,15.3214567 69.4439351,15.3214567 L64.4692055,15.3214567 C63.658204,15.3214567 63,16.0065174 63,16.8506101 L63,31.4708465 C63.0007346,32.3149392 63.658204,33 64.4699401,33 Z M70.9138752,19.3828883 L73.2631347,16.9599446 C74.1622884,16.032513 74.8660378,14.9468141 75.3552833,13.7319016 C75.3582217,13.7242559 75.3611601,13.7166101 75.3640985,13.7097289 C75.8518747,12.4932873 76.0979666,11.2080338 76.0957628,9.88913894 L76.0950282,9.12379762 C76.4902445,9.22778006 76.8083275,9.52061295 76.8803185,9.85396841 L76.8861953,9.99923799 C76.9574518,11.6904817 76.8391808,13.391665 76.5343206,15.055384 L76.3198166,16.2267155 C76.2382757,16.6747575 76.3521392,17.1373264 76.6312882,17.4882671 C76.9104372,17.8392079 77.3254878,18.0425853 77.763311,18.0425853 C77.763311,18.0425853 77.7640456,18.0425853 77.7640456,18.0425853 L84.4290961,18.0379978 C84.5267983,18.0379978 84.6237659,18.0632288 84.7288141,18.1221013 C84.9345028,18.2367878 85.0623237,18.4546921 85.0623237,18.6894172 C85.0623237,18.966194 84.9543371,19.2368541 84.7655442,19.4318212 L84.6443347,19.5564472 C84.0794252,20.1390547 84.0625294,21.083307 84.6061354,21.6880872 L84.9190762,22.035205 C85.0116361,22.1384229 85.0623237,22.2729884 85.0623237,22.4350786 C85.0623237,22.633104 84.9771098,22.817367 84.82872,22.9396993 L84.6355195,23.0987312 C84.1293782,23.5161901 83.9442583,24.2280111 84.1785966,24.8534349 L84.3945698,25.4299257 C84.4379114,25.5461414 84.4577457,25.6684737 84.453338,25.7923351 C84.442319,26.065289 84.3159673,26.3160702 84.1073402,26.4796896 L83.6136871,26.8665654 C83.2449165,27.1555754 83.0282087,27.6082048 83.0282087,28.088359 L83.0282087,28.51117 C83.0282087,28.7413076 82.840885,28.9278643 82.6109544,28.9278643 L73.0280618,28.9278643 C72.3044781,28.9278643 71.5963211,28.8162361 70.9146098,28.596038 L70.9146098,19.3828883 L70.9138752,19.3828883 Z M65.9391455,18.3797636 L67.9754643,18.3797636 L67.9754643,18.7459959 L67.9754643,29.6427435 L67.9754643,29.9409285 L65.9391455,29.9409285 L65.9391455,18.3797636 Z" id="Shape"></path>
                            <path d="M82.396072,64.3672952 L88.665069,64.3672952 C89.516881,64.3672952 90.2082067,63.6795282 90.2082067,62.8321009 L90.2082067,52.0703887 L100.913725,52.0703887 L100.913725,62.3001561 C100.913725,63.1475833 101.60505,63.8353504 102.456862,63.8353504 C103.308674,63.8353504 104,63.1475833 104,62.3001561 L104,50.5351943 C104,49.6877671 103.308674,49 102.456862,49 L88.665069,49 C87.813257,49 87.1219313,49.6877671 87.1219313,50.5351943 L87.1219313,61.2969066 L83.9392097,61.2969066 L83.9392097,55.9383108 C83.9392097,55.0908835 83.247884,54.4031164 82.396072,54.4031164 L72.5431377,54.4031164 C71.6913257,54.4031164 71,55.0908835 71,55.9383108 L71,77.4648057 C71,78.3122329 71.6913257,79 72.5431377,79 C73.3949497,79 74.0862754,78.3122329 74.0862754,77.4648057 L74.0862754,57.4735051 L80.8529343,57.4735051 L80.8529343,62.8321009 C80.8529343,63.6802958 81.5434884,64.3672952 82.396072,64.3672952 Z" id="Path"></path>
                            <path d="M66.506348,75.0239567 C67.3308439,75.0239567 68,74.3315301 68,73.4783617 L68,67.6089645 C68,66.755796 67.3308439,66.0633694 66.506348,66.0633694 L58.6131441,66.0633694 L58.6131441,56.5455951 C58.6131441,55.6924266 57.9439881,55 57.1194922,55 L45.3883495,55 C44.5638536,55 43.8946975,55.6924266 43.8946975,56.5455951 L43.8946975,75.9088099 L36.493652,75.9088099 C35.6691561,75.9088099 35,76.6012365 35,77.4544049 C35,78.3075734 35.6691561,79 36.493652,79 L45.3883495,79 C46.2128454,79 46.8820015,78.3075734 46.8820015,77.4544049 L46.8820015,58.0911901 L55.6258402,58.0911901 L55.6258402,67.6089645 C55.6258402,68.4621329 56.2949963,69.1545595 57.1194922,69.1545595 L65.012696,69.1545595 L65.012696,73.4783617 C65.012696,74.3315301 65.6811053,75.0239567 66.506348,75.0239567 Z" id="Path"></path>
                            <path d="M39.0266563,46.2793749 L39.5286506,46.706898 C40.4283491,47.4728481 41.4136589,48.1718035 42.4565619,48.7830441 L44.142329,49.7713891 C44.4014982,49.9233359 44.70036,50 45,50 C45.2708435,50 45.5416869,49.9378399 45.7837338,49.8121385 L46.5542368,49.4136234 C48.2524565,48.5344039 49.7996887,47.4466028 51.153906,46.1792282 C51.7290592,45.6405076 52.1898045,45.0258137 52.5236891,44.3517224 L52.6046308,44.1859622 C52.8669131,43.636191 53,43.0525771 53,42.4523871 C53,41.8515065 52.8669131,41.2678926 52.6054091,40.7188121 C52.3524662,40.1876889 51.9905633,39.711819 51.5305964,39.302944 C51.0706294,38.8947596 50.5336122,38.5729086 49.9351104,38.3491323 C48.6953011,37.8836226 47.2671466,37.8836226 46.0273373,38.3491323 C45.6607647,38.4865752 45.3175406,38.6606233 45,38.8692049 C44.6832377,38.661314 44.3392353,38.4865752 43.9726627,38.3491323 C42.7320751,37.8836226 41.3031423,37.8836226 40.0656679,38.3491323 C39.4663878,38.5735992 38.9293706,38.8954502 38.4701819,39.302944 C38.0094367,39.711819 37.6475338,40.1883795 37.3953692,40.7181214 C37.1330869,41.2678926 37,41.8521972 37,42.4523871 C37,43.0525771 37.1330869,43.636191 37.3953692,44.1859622 C37.3977041,44.1901062 37.3992606,44.1942502 37.4015955,44.1983942 C37.775951,44.9802296 38.3230859,45.6805663 39.0266563,46.2793749 Z M40.2633525,41.7934905 C40.3590816,41.5925063 40.4960599,41.4115514 40.6719525,41.2554606 C40.8462885,41.1000604 41.0501994,40.978503 41.2782372,40.8928602 C41.7452087,40.7174307 42.2923436,40.7181214 42.7585368,40.8928602 C42.9857963,40.978503 43.1889289,41.1000604 43.3648215,41.2561513 C43.4208581,41.3058793 43.4737815,41.3590607 43.5220352,41.4150047 C43.5718455,41.4723301 43.6177644,41.5324182 43.6590135,41.5952689 C43.9384181,42.0158853 44.4474171,42.2741949 44.9976651,42.2748856 C44.9984434,42.2748856 44.9984434,42.2748856 44.9992217,42.2748856 C45.5486915,42.2748856 46.0576904,42.0172667 46.3378733,41.5980316 C46.3806791,41.5344902 46.4265979,41.4730208 46.4771865,41.4150047 C46.5262185,41.35837 46.5791419,41.304498 46.6344002,41.2561513 C46.8102928,41.1000604 47.0142037,40.978503 47.2406849,40.8935509 C47.7076564,40.7181214 48.2532348,40.7181214 48.7217628,40.8935509 C48.9490223,40.9791936 49.1529332,41.1007511 49.3280475,41.2561513 C49.5031618,41.4122421 49.6409184,41.5925063 49.7366475,41.7948718 C49.8354898,42.002072 49.8853001,42.2237762 49.8853001,42.4530778 C49.8853001,42.6816887 49.8354898,42.9020116 49.735091,43.1126651 L49.6720498,43.2418199 C49.4829264,43.623759 49.220644,43.9732366 48.893764,44.2798929 C47.7605798,45.340758 46.4678471,46.2531296 45.0498103,46.9949063 L44.1711256,46.4796685 C43.284658,45.9602866 42.4480008,45.3663127 41.6829458,44.7150134 L41.1801732,44.2867996 C40.7941434,43.958042 40.4929468,43.5781749 40.270357,43.1278598 C40.2680222,43.1216438 40.264909,43.1154278 40.2617959,43.1092118 C40.1629536,42.9020116 40.1131433,42.680998 40.1131433,42.4530778 C40.1139216,42.2230856 40.1645102,42.0013813 40.2633525,41.7934905 Z" id="Shape"></path>
                            <path d="M91.4663405,75.1299289 C91.9088476,76.0435689 92.5555277,76.8617332 93.3873139,77.5621208 L94.0045994,78.0820106 C95.0969644,79.0012258 96.2910186,79.8382065 97.5533952,80.5699548 L99.6237247,81.7693251 C99.8882756,81.9226438 100.193343,82 100.499206,82 C100.775673,82 101.052141,81.9372787 101.300008,81.8104423 L102.245401,81.3267916 C104.304608,80.273074 106.181092,78.9691683 107.821626,77.4506163 C108.501673,76.8213128 109.046663,76.1021088 109.443887,75.3104268 L109.540809,75.114597 C109.845877,74.4832028 110,73.8120851 110,73.1214541 C110,72.4308231 109.845877,71.7590084 109.540809,71.1269173 C109.24607,70.5164301 108.825807,69.9686643 108.289555,69.4989516 C107.754098,69.0292389 107.130457,68.6598802 106.432932,68.4013291 C104.99101,67.8661075 103.327438,67.8661075 101.887105,68.402026 C101.385809,68.5880992 100.921057,68.8327122 100.5,69.1302898 C100.078943,68.8320153 99.6141913,68.5880992 99.1121007,68.4013291 C97.6709734,67.8661075 96.0074009,67.8668044 94.5662736,68.4013291 C93.8703378,68.6598802 93.2459023,69.028542 92.7104449,69.4989516 C92.174193,69.9693612 91.753136,70.5171271 91.4591905,71.1276142 C91.1541228,71.7604022 91,72.43152 91,73.1214541 C91,73.8120851 91.1549172,74.4832028 91.4599849,75.114597 C91.4615738,75.1201723 91.4639572,75.1250506 91.4663405,75.1299289 Z M94.3859341,72.2112986 C94.5194012,71.9339311 94.7116575,71.6837429 94.9563472,71.4690967 C95.2018314,71.2544506 95.4862435,71.0858 95.803228,70.9680234 C96.457058,70.7255011 97.2213163,70.7255011 97.872763,70.9673265 C98.1897474,71.0851031 98.474954,71.2537537 98.7196438,71.4690967 C98.7974996,71.5373932 98.8705887,71.6105681 98.9397056,71.6886212 C99.0088225,71.7673713 99.0723783,71.8496058 99.1311674,71.9360218 C99.416374,72.3604358 99.9367369,72.6217745 100.498411,72.6217745 C100.499206,72.6217745 100.499206,72.6217745 100.5,72.6217745 C101.061674,72.6217745 101.581243,72.3618296 101.867244,71.9381125 C101.926033,71.8509997 101.990383,71.7673713 102.0595,71.6886212 C102.127028,71.6119619 102.200117,71.538787 102.280356,71.4683998 C102.52584,71.2530568 102.810253,71.0844062 103.126443,70.9673265 C103.779478,70.7255011 104.544531,70.726198 105.195978,70.9673265 C105.512962,71.0851031 105.798169,71.2537537 106.043653,71.4683998 C106.288343,71.6837429 106.480599,71.9332342 106.61486,72.2112986 C106.753094,72.4984227 106.823006,72.8043631 106.823006,73.1207572 C106.823006,73.4364543 106.753094,73.7416979 106.617244,74.0225498 L106.533827,74.1918973 C106.286754,74.6853047 105.944347,75.136201 105.51614,75.5327389 C104.083751,76.8589456 102.444807,77.9976853 100.645384,78.9182943 L100.552434,78.9656838 L99.3059458,78.2429952 C98.2024586,77.603935 97.1593494,76.8728836 96.2052183,76.0700512 L95.5879328,75.5501615 C95.0826643,75.1250506 94.6886185,74.633037 94.3970564,74.0518198 C94.3930841,74.0434569 94.3891119,74.035791 94.3851397,74.0274281 C94.2469058,73.741001 94.1769945,73.4357574 94.1769945,73.1200603 C94.1769945,72.80506 94.2477003,72.4991196 94.3859341,72.2112986 Z" id="Shape"></path>
                            <path d="M115.575004,37.9356908 L115.643766,37.7892529 C115.879875,37.2744323 116,36.7283411 116,36.166996 C116,35.6048882 115.879875,35.058797 115.643766,34.5447391 C115.415942,34.0474606 115.089532,33.6012827 114.673649,33.2191714 C114.258595,32.8362975 113.773951,32.5357948 113.234629,32.326053 C112.117048,31.8913157 110.825493,31.8913157 109.710397,32.326053 C109.461862,32.4229156 109.224925,32.5396083 109.000414,32.6746057 C108.775904,32.5396083 108.538967,32.4236783 108.29126,32.3268157 C107.173679,31.8913157 105.882952,31.8913157 104.766199,32.3268157 C104.227706,32.5365575 103.743062,32.8362975 103.324694,33.2206968 C102.90964,33.6035708 102.58323,34.0497487 102.356234,34.5455018 C102.120125,35.0595597 102,35.6064136 102,36.1685214 C102,36.7306292 102.120125,37.2767204 102.356234,37.7907783 C102.359548,37.7976426 102.362862,37.8052695 102.366176,37.8121338 C102.695899,38.5229676 103.175573,39.1598197 103.792769,39.7043855 L104.208651,40.0720055 C104.969998,40.7454672 105.805077,41.3594384 106.689035,41.8971399 L108.087461,42.7475472 C108.363335,42.9153406 108.68146,43 109.000414,43 C109.288715,43 109.577016,42.9313573 109.835493,42.7925464 L110.474229,42.4493326 C111.914078,41.6759577 113.224688,40.7195354 114.369608,39.607523 C114.874135,39.1148206 115.279247,38.5534755 115.575004,37.9356908 Z M112.590094,36.6040215 L112.540387,36.7100364 C112.400379,37.0029121 112.206521,37.2713815 111.962956,37.5070549 C111.09971,38.3452591 110.121309,39.0743976 109.050121,39.6761657 L108.514113,39.3497313 C107.796674,38.9142312 107.120658,38.41619 106.501805,37.8693361 L106.085094,37.5009534 C105.790994,37.2408736 105.563169,36.9403709 105.436416,36.6688508 C105.426475,36.6452071 105.415705,36.6200381 105.403278,36.5941064 C105.342801,36.4598717 105.312149,36.315722 105.312149,36.166996 C105.312149,36.0152193 105.344458,35.8687814 105.406592,35.7314959 C105.467898,35.5987866 105.555713,35.4782805 105.665897,35.3768417 C105.778567,35.2731149 105.908634,35.192269 106.053613,35.1358294 C106.350198,35.0206622 106.700633,35.0198995 106.99639,35.1358294 C107.140541,35.192269 107.271436,35.2731149 107.379963,35.373791 C107.415587,35.4073496 107.450382,35.4431964 107.481034,35.4798059 C107.514172,35.5187034 107.543997,35.5606518 107.572164,35.6033628 C107.870407,36.0670827 108.412214,36.3515687 108.997929,36.3515687 C109.583644,36.3515687 110.125451,36.0670827 110.423694,35.6033628 C110.451033,35.5614145 110.480028,35.5209915 110.513995,35.4805686 C110.544648,35.4439591 110.577786,35.408875 110.612581,35.3776044 C110.726078,35.2731149 110.855317,35.192269 111.000296,35.1365921 C111.295225,35.0206622 111.64566,35.0214249 111.943902,35.1365921 C112.088053,35.1930317 112.218119,35.2731149 112.32996,35.376079 C112.441801,35.4790432 112.529617,35.5987866 112.590094,35.7322586 C112.653056,35.8695441 112.685366,36.015982 112.685366,36.166996 C112.686194,36.3180101 112.654713,36.4644479 112.590094,36.6040215 Z" id="Shape"></path>
                        </g>
                    </g>
                </g>
            </g>
        </g>
    </g>
</svg>