<svg viewBox="0 0 60 60" xmlns="http://www.w3.org/2000/svg" xmlns:xlink="http://www.w3.org/1999/xlink"><clipPath id="a"><ellipse cx="31.5" cy="31.5" rx="24.5" ry="20.5"/></clipPath><clipPath id="b"><path d="m46.48 24.87-18.85 18.67a2.54 2.54 0 0 1 -1.77.72 2.5 2.5 0 0 1 -1.76-.72l-8.61-8.54a2.44 2.44 0 0 1 0-3.49 2.51 2.51 0 0 1 3.52 0l6.85 6.78 17.14-16.91a2.5 2.5 0 0 1 3.53 0 2.44 2.44 0 0 1 -.05 3.49zm-16.48-24.87a30 30 0 1 0 30 30 30 30 0 0 0 -30-30z"/></clipPath><g clip-path="url(#a)"><path d="m2 6h59v51h-59z" fill="#fff"/></g><g clip-path="url(#b)"><path d="m-4.92-4.92h69.84v69.84h-69.84z" fill="#ef4945"/></g></svg>