<svg xmlns="http://www.w3.org/2000/svg" viewBox="0 0 234.19 66.5"><defs><style>.cls-1{fill:#d30505;}.cls-2{fill:#36235f;}.cls-3{fill:none;stroke:#36235f;stroke-miterlimit:10;stroke-width:5px;}</style></defs><g id="Layer_2" data-name="Layer 2"><g id="Layer_1-2" data-name="Layer 1"><path class="cls-1" d="M40.71,44.47V53.6H12V11.83H40V21H22v7H37.9v8.84H22v7.63Z"/><path class="cls-1" d="M79.57,35.73a11.53,11.53,0,0,1,1.73,6.42,10.18,10.18,0,0,1-3.77,8.47q-3.78,3-10.92,3H47.34V11.83H65.59q6.84,0,10.41,3a9.79,9.79,0,0,1,3.57,8,11.25,11.25,0,0,1-1.25,5.34,9.37,9.37,0,0,1-3.55,3.73A10.24,10.24,0,0,1,79.57,35.73ZM57.33,20.37v8.05h6.94q5.1,0,5.1-4.06t-5.1-4ZM71.1,40.83q0-4.23-5.3-4.23H57.33v8.47H65.8Q71.1,45.07,71.1,40.83Z"/><path class="cls-2" d="M119.81,53.6l-.1-22.13-9.19,18H106L96.91,32.06V53.6H87.57V11.83h8.32l12.54,24.11,12.24-24.11H129l.1,41.77Z"/><rect class="cls-3" x="2.5" y="2.5" width="135.72" height="61.5"/><path class="cls-2" d="M158.17,19.53V22.2h-8.73V11.7H158v2.67h-5.05V15.6h4.44v2.55h-4.44v1.38Z"/><path class="cls-2" d="M168.5,22.2l0-4.79-2.28,3.85h-1.56l-2.28-3.68V22.2h-3.22V11.7H162l3.42,5.6,3.33-5.6h2.91l0,10.5Z"/><path class="cls-2" d="M180.62,12.18a3.78,3.78,0,0,1,0,7,6.17,6.17,0,0,1-2.53.48h-1.52V22.2H173V11.7h5.06A6.17,6.17,0,0,1,180.62,12.18Zm-1.68,4.39a1.33,1.33,0,0,0,0-1.82,1.6,1.6,0,0,0-1.08-.32h-1.29v2.46h1.29A1.6,1.6,0,0,0,178.94,16.57Z"/><path class="cls-2" d="M183.62,11.7h3.54v7.75h4.74V22.2h-8.28Z"/><path class="cls-2" d="M194.78,21.73a5.39,5.39,0,0,1,0-9.57,7,7,0,0,1,6.09,0,5.37,5.37,0,0,1,0,9.57,6.88,6.88,0,0,1-6.09,0ZM199,19.25a2.34,2.34,0,0,0,.85-.91,3.27,3.27,0,0,0,0-2.78,2.34,2.34,0,0,0-.85-.91,2.22,2.22,0,0,0-1.19-.33,2.26,2.26,0,0,0-1.2.33,2.31,2.31,0,0,0-.84.91,3.18,3.18,0,0,0,0,2.78,2.31,2.31,0,0,0,.84.91,2.25,2.25,0,0,0,1.2.32A2.21,2.21,0,0,0,199,19.25Z"/><path class="cls-2" d="M210.43,18.39V22.2h-3.54V18.34l-4-6.64h3.73l2.15,3.63L211,11.7h3.42Z"/><path class="cls-2" d="M223.16,19.53V22.2h-8.73V11.7H223v2.67h-5.06V15.6h4.44v2.55h-4.44v1.38Z"/><path class="cls-2" d="M228.62,19.56h-1V22.2h-3.54V11.7h5.06a6.17,6.17,0,0,1,2.53.48A3.61,3.61,0,0,1,234,15.66a3.69,3.69,0,0,1-.51,2A3.61,3.61,0,0,1,232,19l2.21,3.24h-3.78ZM230,14.75a1.6,1.6,0,0,0-1.08-.32h-1.29v2.46H229a1.6,1.6,0,0,0,1.08-.32,1.33,1.33,0,0,0,0-1.82Z"/><path class="cls-2" d="M159.28,33.72a2.47,2.47,0,0,1,.51,1.58,2.42,2.42,0,0,1-1.14,2.14,5.92,5.92,0,0,1-3.3.76h-5.91V27.7h5.61a5.54,5.54,0,0,1,3.17.75,2.32,2.32,0,0,1,1.07,2,2.39,2.39,0,0,1-.37,1.32,2.59,2.59,0,0,1-1.08.95A3.08,3.08,0,0,1,159.28,33.72Zm-6.36-3.54v1.55h1.65c.77,0,1.15-.26,1.15-.78s-.38-.77-1.15-.77Zm3.3,4.72c0-.55-.39-.83-1.17-.83h-2.13v1.65h2.13C155.83,35.72,156.22,35.45,156.22,34.9Z"/><path class="cls-2" d="M165.13,35.56h-1V38.2h-3.54V27.7h5.05a6.22,6.22,0,0,1,2.54.48,3.72,3.72,0,0,1,1.66,1.38,3.77,3.77,0,0,1,.59,2.1,3.69,3.69,0,0,1-.51,2A3.61,3.61,0,0,1,168.49,35l2.2,3.24h-3.78Zm1.41-4.81a1.6,1.6,0,0,0-1.08-.32h-1.29v2.46h1.29a1.6,1.6,0,0,0,1.08-.32,1.33,1.33,0,0,0,0-1.82Z"/><path class="cls-2" d="M178.55,36.37h-4l-.7,1.83h-3.6l4.59-10.5h3.48l4.59,10.5h-3.66Zm-1-2.55-1-2.64-1,2.64Z"/><path class="cls-2" d="M193.43,27.7V38.2h-2.91l-4-4.77V38.2h-3.45V27.7H186l4,4.77V27.7Z"/><path class="cls-2" d="M194.74,27.7h5.17a7.1,7.1,0,0,1,3.1.64,4.8,4.8,0,0,1,2.08,1.82,5.56,5.56,0,0,1,0,5.58A4.8,4.8,0,0,1,203,37.56a7.1,7.1,0,0,1-3.1.64h-5.17Zm5,7.74a2.53,2.53,0,0,0,1.82-.65,2.8,2.8,0,0,0,0-3.68,2.53,2.53,0,0,0-1.82-.65h-1.48v5Z"/><path class="cls-2" d="M206.72,27.7h3.54V38.2h-3.54Z"/><path class="cls-2" d="M221.92,27.7V38.2H219l-4-4.77V38.2h-3.45V27.7h2.91l4,4.77V27.7Z"/><path class="cls-2" d="M230.17,32.66h3.07V37.1a7.14,7.14,0,0,1-2.16,1,8.89,8.89,0,0,1-2.41.35,6.35,6.35,0,0,1-3-.7,5.11,5.11,0,0,1-2.09-2,5.69,5.69,0,0,1,0-5.68,5.1,5.1,0,0,1,2.11-1.95,6.58,6.58,0,0,1,3.07-.7,7,7,0,0,1,2.77.52,5.16,5.16,0,0,1,2,1.5l-2.26,2a3,3,0,0,0-2.36-1.16,2.49,2.49,0,0,0-1.86.71,2.63,2.63,0,0,0-.69,1.92,2.66,2.66,0,0,0,.68,1.9,2.42,2.42,0,0,0,1.83.72,3.37,3.37,0,0,0,1.29-.25Z"/><path class="cls-2" d="M158.81,54.2l0-4.79-2.28,3.85h-1.56l-2.28-3.68V54.2h-3.22V43.7h2.91l3.42,5.6,3.33-5.6H162l0,10.5Z"/><path class="cls-2" d="M165.8,53.73a5.39,5.39,0,0,1,0-9.57,7,7,0,0,1,6.09,0,5.37,5.37,0,0,1,0,9.57,6.88,6.88,0,0,1-6.09,0ZM170,51.25a2.34,2.34,0,0,0,.85-.91,3.27,3.27,0,0,0,0-2.78,2.34,2.34,0,0,0-.85-.91,2.22,2.22,0,0,0-1.19-.33,2.26,2.26,0,0,0-1.2.33,2.31,2.31,0,0,0-.84.91,3.18,3.18,0,0,0,0,2.78,2.31,2.31,0,0,0,.84.91,2.25,2.25,0,0,0,1.2.32A2.21,2.21,0,0,0,170,51.25Z"/><path class="cls-2" d="M186,43.7V54.2H183.1l-4-4.77V54.2h-3.45V43.7h2.91l4,4.77V43.7Z"/><path class="cls-2" d="M187.31,43.7h3.54V54.2h-3.54Z"/><path class="cls-2" d="M194.44,46.44h-3.08V43.7h9.69v2.74H198V54.2h-3.54Z"/><path class="cls-2" d="M203.87,53.73a5.39,5.39,0,0,1,0-9.57,7,7,0,0,1,6.09,0,5.37,5.37,0,0,1,0,9.57,6.88,6.88,0,0,1-6.09,0Zm4.24-2.48a2.34,2.34,0,0,0,.85-.91,3.27,3.27,0,0,0,0-2.78,2.34,2.34,0,0,0-.85-.91,2.22,2.22,0,0,0-1.19-.33,2.26,2.26,0,0,0-1.2.33,2.31,2.31,0,0,0-.84.91,3.18,3.18,0,0,0,0,2.78,2.31,2.31,0,0,0,.84.91,2.25,2.25,0,0,0,1.2.32A2.21,2.21,0,0,0,208.11,51.25Z"/><path class="cls-2" d="M218.23,51.56h-1V54.2h-3.54V43.7h5.05a6.22,6.22,0,0,1,2.54.48A3.72,3.72,0,0,1,223,45.56a3.77,3.77,0,0,1,.59,2.1,3.69,3.69,0,0,1-.51,2A3.61,3.61,0,0,1,221.59,51l2.2,3.24H220Zm1.41-4.81a1.6,1.6,0,0,0-1.08-.32h-1.29v2.46h1.29a1.6,1.6,0,0,0,1.08-.32,1.33,1.33,0,0,0,0-1.82Z"/></g></g></svg>