<svg xmlns="http://www.w3.org/2000/svg" viewBox="0 0 249.31 115.71"><defs><style>.cls-1{fill:#d30505;}.cls-2{fill:#36235f;}.cls-3{fill:none;stroke:#36235f;stroke-miterlimit:10;stroke-width:5px;}</style></defs><g id="Layer_2" data-name="Layer 2"><g id="Layer_1-2" data-name="Layer 1"><path class="cls-1" d="M71.28,79.06V95.49H19.68V20.3h50.4V36.74H37.67V49.41H66.23v15.9H37.67V79.06Z"/><path class="cls-1" d="M141.23,63.32a20.68,20.68,0,0,1,3.12,11.55q0,9.88-6.79,15.25t-19.65,5.37H83.21V20.3h32.87q12.3,0,18.73,5.32T141.23,40A20.19,20.19,0,0,1,139,49.57a16.9,16.9,0,0,1-6.38,6.72A18.28,18.28,0,0,1,141.23,63.32Zm-40-27.66v14.5h12.49q9.18,0,9.18-7.3t-9.18-7.2ZM126,72.5q0-7.62-9.55-7.62H101.2V80.13h15.24Q126,80.13,126,72.5Z"/><path class="cls-2" d="M213.67,95.49l-.19-39.85L197,88.08h-8.08L172.44,56.71V95.49H155.65V20.3h15l22.58,43.4,22-43.4h15l.18,75.19Z"/><rect class="cls-3" x="2.5" y="2.5" width="244.31" height="110.71"/></g></g></svg>