<svg height="64" viewBox="0 0 260 64" width="260" xmlns="http://www.w3.org/2000/svg"><g fill="none"><path d="m39.62 34.37c-1.2120999-1.3438009-2.7322938-2.3732776-4.43-3-2.0911076-.7438355-4.2249369-1.3616108-6.39-1.85-2.14-.5-3.87-1-5.14-1.4-1.0675301-.3395264-2.0473353-.909657-2.87-1.67-.6936369-.6895141-1.0578189-1.6436707-1-2.62-.0062977-1.4906019.7476318-2.8816019 2-3.69 1.39-1 3.55-1.53 6.41-1.53 1.582623.0079745 3.1568952.2299873 4.68.66 1.5862821.4438856 3.0990015 1.1177027 4.49 2l1 .6 2-4.54-.64-.42c-1.6329536-1.0485753-3.4218251-1.8316285-5.3-2.32-2.0170735-.5515379-4.0988809-.8306817-6.19-.83-2.6134733-.0753471-5.2153115.3769986-7.65 1.33-1.9082643.7472631-3.5584305 2.0326557-4.75 3.7-1.0672588 1.5277646-1.639719 3.3463729-1.64 5.21-.0916885 2.0380485.5987118 4.034128 1.93 5.58 1.2131607 1.3379996 2.728613 2.3665871 4.42 3 2.1202089.7618945 4.2840685 1.3963595 6.48 1.9 1.7239166.374706 3.4263856.8420504 5.1 1.4 1.0431433.344361 2.0010359.9068246 2.81 1.65.6911085.6788124 1.0556127 1.6228783 1 2.59.0023288 1.4628695-.7548922 2.8220813-2 3.59-1.41 1-3.61 1.49-6.55 1.49-2.1230172-.0025875-4.2299903-.3678413-6.23-1.08-1.7581557-.5794088-3.3759966-1.5194595-4.75-2.76l-.93-.89-2.36 4.45.46.46c1.6923903 1.5844899 3.7290236 2.7551262 5.95 3.42 2.5439667.8257137 5.2055643 1.2310331 7.88 1.2 2.62423.0689336 5.2366059-.3760876 7.69-1.31 1.9374231-.7290105 3.6172872-2.012385 4.83-3.69 1.0491538-1.5150153 1.6044888-3.3172344 1.59-5.16.0878956-1.9989855-.5918477-3.9559306-1.9-5.47z" fill="#fff"/><path d="m85.51 50.05h-7.51l-.39-.41-7.17-7.17c-5.9737945 4.2378368-14.0689427 3.8497981-19.61-.94v-10.69c.5744152 3.9404943 3.3245448 7.2189017 7.1050784 8.469907 3.7805335 1.2510052 7.943391.2601539 10.7549216-2.559907 1.9445322-2.0302914 3.0207599-4.7387978 3-7.55-.0252392-2.7381369-1.1324384-5.3551533-3.08-7.28-1.9666757-1.9326038-4.6029463-3.0322438-7.36-3.07-5.2293473.0091524-9.6706714 3.8305593-10.46 9v-10.64c6.1101803-5.3898226 15.2948034-5.3272689 21.3310033.1452791 6.0361999 5.4725479 6.9959529 14.6071027 2.2289967 21.2147209l6.77 6.81c.74.74 1.85 1.89 2.21 2.28l.39.41z" fill="#d30505"/><g fill="#fff"><path d="m121.4 13.81-.14.24-.01-.01-13.87 23.95-13.88-23.71-.28-.47h-4.38v36.21h5.46v-23.45l10.89 18.87h4.23l10.9-18.88v23.49h5.46v-36.24z"/><path d="m0 .47v63.06h138.75v-63.06zm133.8 57.53h-128.8v-52h128.8z"/><path d="m149.17 20.83c-.683002-.1590295-1.332838-.4365634-1.92-.82l1-2.16c.497927.3234624 1.040277.5727411 1.61.74.582252.1844026 1.189246.2788239 1.8.28 1.12 0 1.68-.28 1.68-.84.001192-.3011814-.193103-.5683377-.48-.66-.499299-.1944152-1.014578-.3449839-1.54-.45-.663465-.1272651-1.31558-.3078509-1.95-.54-.515803-.1912729-.976184-.5073553-1.34-.92-.392434-.4807391-.59204-1.0902519-.56-1.71-.008912-.6071312.17297-1.2017454.52-1.7.383973-.5452412.919393-.9659285 1.54-1.21.798788-.3131716 1.652318-.4627944 2.51-.44.67317.0016285 1.344033.0787777 2 .23.610547.1340501 1.197222.3599539 1.74.67l-.9 2.17c-.871233-.5021137-1.854691-.7772067-2.86-.8-.439067-.0299342-.878021.0599304-1.27.26-.245003.1342343-.398082.3906405-.4.67.008339.2857772.197098.5347787.47.62.492887.1882034 1.001565.3321059 1.52.43.678315.1336939 1.346575.3141241 2 .54.513454.1909527.973166.5031449 1.34.91.400393.4768583.6042 1.0882774.57 1.71.007416.6007157-.174521 1.1885137-.52 1.68-.39182.5394718-.92958.9558023-1.55 1.2-.793425.3206542-1.644562.4738588-2.5.45-.846784.0097175-1.691025-.0945514-2.51-.31z"/><path d="m159.79 20.45c-.830249-.4443106-1.522186-1.1085703-2-1.92-1.000723-1.7039338-1.000723-3.8160662 0-5.52.483355-.8070319 1.17392-1.4699734 2-1.92 1.852096-.9197635 4.027904-.9197635 5.88 0 1.278094.6959134 2.219016 1.8807568 2.607345 3.2832621.388328 1.4025054.190805 2.9025633-.547345 4.1567379-.49537.8186166-1.2086 1.4833739-2.06 1.92-1.852096.9197635-4.027904.9197635-5.88 0zm4.36-2.1c.418073-.2361879.763812-.581927 1-1 .493311-.9674079.493311-2.1125921 0-3.08-.23895-.4159661-.584034-.7610499-1-1-.882401-.4933071-1.957599-.4933071-2.84 0-.415966.2389501-.76105.5840339-1 1-.493311.9674079-.493311 2.1125921 0 3.08.236188.418073.581927.7638121 1 1 .882401.4933071 1.957599.4933071 2.84 0z"/><path d="m172.24 20.46c-.827144-.4440611-1.518351-1.1041637-2-1.91-.49681-.8413247-.752802-1.8030234-.74-2.78-.01407-.9739784.242077-1.9327995.74-2.77.473835-.8120392 1.167019-1.4740304 2-1.91.897272-.4690994 1.897634-.7062987 2.91-.69.878739-.0122779 1.75046.1579801 2.56.5.735629.3273615 1.383295.8242481 1.89 1.45l-1.86 1.65c-.578093-.764241-1.481746-1.2123643-2.44-1.21-.523728-.0097362-1.040877.1178272-1.5.37-.419646.2341122-.765888.5803541-1 1-.493311.9674079-.493311 2.1125921 0 3.08.231499.4216135.578387.7685006 1 1 .459123.2521728.976272.3797362 1.5.37.958254.0023643 1.861907-.445759 2.44-1.21l1.86 1.68c-.503981.6285414-1.152382 1.1259918-1.89 1.45-.80954.3420199-1.681261.5122779-2.56.5-1.001884.0489778-2.000633-.1466534-2.91-.57z"/><path d="m180.89 10.61h2.92v10.33h-2.92z"/><path d="m192.82 18.93h-4.37l-.81 2h-3l4.55-10.33h2.88l4.58 10.33h-3zm-.86-2.15-1.33-3.31-1.33 3.31z"/><path d="m197.49 10.61h2.92v8h4.93v2.32h-7.85z"/><path d="m151.75 34.78h-1.6v2.74h-2.92v-10.33h4.77c.837476-.0183242 1.669254.1418953 2.44.47.64082.2829674 1.183599.7492006 1.56 1.34.727143 1.2341952.727143 2.7658048 0 4-.365616.570111-.885861 1.0244583-1.5 1.31l2.23 3.24h-3.13zm1.38-4.89c-.388015-.28901-.867641-.4275687-1.35-.39h-1.63v3h1.63c.482359.0375687.961985-.10099 1.35-.39.318938-.2816437.488911-.6954899.46-1.12.018268-.4168984-.150391-.820214-.46-1.1z"/><path d="m166.44 35.26v2.26h-8.29v-10.33h8.1v2.26h-5.25v1.74h4.59v2.19h-4.59v1.88z"/><path d="m170.3 37c-.829246-.4411582-1.521154-1.1019309-2-1.91-.987305-1.7182741-.987305-3.8317259 0-5.55.481649-.8058363 1.172856-1.4659389 2-1.91 1.71363-.8397341 3.704871-.9052594 5.47-.18.735814.3176448 1.381653.8123298 1.88 1.44l-1.85 1.69c-.578093-.764241-1.481746-1.2123643-2.44-1.21-.523728-.0097362-1.040877.1178272-1.5.37-.421613.2314994-.768501.5783865-1 1-.493311.9674079-.493311 2.1125921 0 3.08.234112.4196459.580354.7658878 1 1 .459123.2521728.976272.3797362 1.5.37.958254.0023643 1.861907-.445759 2.44-1.21l1.85 1.68c-.501159.6272652-1.146004 1.1246191-1.88 1.45-.80954.3420199-1.681261.5122779-2.56.5-1.00557.0410502-2.005568-.1685714-2.91-.61z"/><path d="m183.47 34.78h-1.6v2.74h-2.87v-10.33h4.72c.837476-.0183242 1.669254.1418953 2.44.47 1.341784.5630525 2.197018 1.8956265 2.15 3.35.025259.7030946-.155481 1.3982475-.52 2-.365616.570111-.885861 1.0244583-1.5 1.31l2.23 3.24h-3.13zm1.38-4.89c-.388015-.28901-.867641-.4275687-1.35-.39h-1.63v3h1.63c.482359.0375687.961985-.10099 1.35-.39.318938-.2816437.488911-.6954899.46-1.12.018268-.4168984-.150391-.820214-.46-1.1z"/><path d="m191.06 36.47c-.898587-.9558029-1.361867-2.2406811-1.28-3.55v-5.73h2.92v5.64c0 1.65.66 2.48 2 2.48s1.94-.83 1.94-2.48v-5.64h2.88v5.73c.085753 1.3080354-.374003 2.5931821-1.27 3.55-2.091571 1.6784456-5.068429 1.6784456-7.16 0z"/><path d="m201.47 27.19h2.92v10.33h-2.92z"/><path d="m208.67 29.51h-3.17v-2.32h9.25v2.32h-3.16v8h-2.92z"/><path d="m225.17 37.52v-5.47l-2.66 4.45h-1.3l-2.64-4.3v5.32h-2.7v-10.33h2.4l3.64 6 3.54-6h2.4v10.33z"/><path d="m238.21 35.26v2.26h-8.29v-10.33h8.08v2.26h-5.21v1.74h4.59v2.19h-4.59v1.88z"/><path d="m249.66 27.19v10.33h-2.41l-4.56-5.5v5.5h-2.86v-10.33h2.4l4.56 5.51v-5.51z"/><path d="m253.92 29.51h-3.17v-2.32h9.25v2.32h-3.16v8h-2.92z"/><path d="m156.56 53.88v-5.47l-2.66 4.46h-1.3l-2.64-4.31v5.32h-2.7v-10.32h2.41l3.63 6 3.54-6h2.4v10.32z"/><path d="m163.57 53.4c-.824076-.4527596-1.513996-1.1150823-2-1.92-.766158-1.2411209-.985883-2.7435052-.607241-4.1520541.378642-1.4085488 1.322049-2.5982632 2.607241-3.2879459 1.855565-.9199691 4.034435-.9199691 5.89 0 1.265792.7082579 2.191977 1.8976139 2.56852 3.2983548s.17154 2.8941795-.56852 4.1416452c-.486004.8049177-1.175924 1.4672404-2 1.92-1.855565.9199691-4.034435.9199691-5.89 0zm4.36-2.1c.41746-.2369936.763006-.58254 1-1 .4806-.9704224.4806-2.1095776 0-3.08-.236994-.41746-.58254-.7630064-1-1-.878798-.4934722-1.951202-.4934722-2.83 0-.420292.2332566-.766743.5797082-1 1-.493311.9674079-.493311 2.1125921 0 3.08.233257.4202918.579708.7667434 1 1 .878798.4934722 1.951202.4934722 2.83 0z"/><path d="m183.62 43.56v10.32h-2.41l-4.56-5.5v5.5h-2.86v-10.32h2.4l4.56 5.5v-5.5z"/><path d="m185.68 43.56h2.92v10.32h-2.92z"/><path d="m192.88 45.87h-3.17v-2.31h9.29v2.31h-3.2v8h-2.92z"/><path d="m202.17 53.4c-.824076-.4527596-1.513996-1.1150823-2-1.92-.766158-1.2411209-.985883-2.7435052-.607241-4.1520541.378642-1.4085488 1.322049-2.5982632 2.607241-3.2879459 1.855565-.9199691 4.034435-.9199691 5.89 0 .846513.4398431 1.555719 1.1040751 2.05 1.92.986053 1.7078939.986053 3.8121061 0 5.52-.499763.8114624-1.207581 1.4743947-2.05 1.92-1.855565.9199691-4.034435.9199691-5.89 0zm4.36-2.1c.420292-.2332566.766743-.5797082 1-1 .493311-.9674079.493311-2.1125921 0-3.08-.233257-.4202918-.579708-.7667434-1-1-.43089-.2501442-.92183-.3780652-1.42-.37-.495034-.0082764-.982813.1197224-1.41.37-.419646.2341122-.765888.5803541-1 1-.493311.9674079-.493311 2.1125921 0 3.08.234112.4196459.580354.7658878 1 1 .427187.2502776.914966.3782764 1.41.37.49817.0080652.98911-.1198558 1.42-.37z"/><path d="m216.9 51.14h-1.59v2.74h-2.92v-10.32h4.72c.833526-.0215939 1.662038.1352438 2.43.46 1.351162.5588613 2.212529 1.8987662 2.16 3.36.02403.7043003-.160338 1.4000283-.53 2-.359034.5719931-.876744 1.0271604-1.49 1.31l2.22 3.24h-3.12zm1.39-4.88c-.389289-.2949117-.873034-.4371895-1.36-.4h-1.62v3h1.62c.485159.0346339.966925-.1035195 1.36-.39.312385-.2820471.481308-.6896657.46-1.11.015486-.4163984-.152701-.8185845-.46-1.1z"/><path d="m45.34 13.8h5.47v36.21h-5.47z"/></g></g></svg>